<?xml version="1.0" encoding="utf-8"?>
<!-- Generator: Adobe Illustrator 23.0.5, SVG Export Plug-In . SVG Version: 6.00 Build 0)  -->
<svg version="1.1" id="Layer_1" xmlns="http://www.w3.org/2000/svg" xmlns:xlink="http://www.w3.org/1999/xlink" x="0px" y="0px"
	 viewBox="0 0 360 530" style="enable-background:new 0 0 360 530;" xml:space="preserve">
<style type="text/css">
	.st0{fill:#616260;}
	.st1{fill:none;stroke:#9A1918;stroke-width:12;stroke-miterlimit:10;}
	.st2{fill:none;stroke:#9A1918;stroke-width:12;stroke-linecap:round;stroke-miterlimit:10;}
</style>
<path class="st0" d="M262.18,250.43H94.99c-10.86,0-19.69-8.83-19.69-19.69v-85.8c0-10.86,8.83-19.69,19.69-19.69h38.51
	c0.54-16.3,13.97-29.38,30.4-29.38h30.85c16.43,0,29.85,13.09,30.39,29.38h37.04c10.86,0,19.69,8.83,19.69,19.69v85.8
	C281.87,241.6,273.04,250.43,262.18,250.43 M94.99,131.13c-7.62,0-13.81,6.2-13.81,13.81v85.8c0,7.62,6.2,13.81,13.81,13.81h167.19
	c7.62,0,13.81-6.2,13.81-13.81v-85.8c0-7.62-6.2-13.81-13.81-13.81h-42.9v-4.85c0-13.53-11.01-24.54-24.54-24.54h-30.85
	c-13.53,0-24.54,11.01-24.54,24.54v4.85H94.99z"/>
<path class="st0" d="M193.28,131.13h-27.03c-4.62,0-8.37-3.76-8.37-8.37v-5.58c0-4.62,3.76-8.37,8.37-8.37h27.03
	c4.62,0,8.37,3.76,8.37,8.37v5.58C201.65,127.38,197.89,131.13,193.28,131.13 M166.24,114.68c-1.38,0-2.5,1.12-2.5,2.5v5.58
	c0,1.38,1.12,2.5,2.5,2.5h27.03c1.38,0,2.5-1.12,2.5-2.5v-5.58c0-1.38-1.12-2.5-2.5-2.5H166.24z"/>
<path class="st0" d="M178.93,232.6c-24.68,0-44.76-20.08-44.76-44.76s20.08-44.76,44.76-44.76s44.76,20.08,44.76,44.76
	S203.61,232.6,178.93,232.6 M178.93,148.96c-21.44,0-38.88,17.44-38.88,38.88c0,21.44,17.44,38.88,38.88,38.88
	s38.88-17.44,38.88-38.88C217.81,166.4,200.37,148.96,178.93,148.96"/>
<path class="st0" d="M155.45,193.48c-1.47,0-2.75-1.11-2.92-2.61c-0.11-1-0.17-2.02-0.17-3.03c0-14.65,11.92-26.57,26.57-26.57
	c1.62,0,2.94,1.32,2.94,2.94c0,1.62-1.32,2.94-2.94,2.94c-11.41,0-20.69,9.28-20.69,20.69c0,0.79,0.05,1.59,0.13,2.37
	c0.18,1.61-0.98,3.07-2.59,3.25C155.67,193.48,155.56,193.48,155.45,193.48"/>
<path class="st0" d="M108.67,156.7h-5.91c-3.15,0-5.71-2.56-5.71-5.71v-0.18c0-3.15,2.56-5.71,5.71-5.71h5.91
	c3.15,0,5.71,2.56,5.71,5.71v0.18C114.38,154.13,111.82,156.7,108.67,156.7"/>
<path class="st0" d="M255.11,131.11h-0.18c-3.15,0-5.71-2.56-5.71-5.71v-5.91c0-3.15,2.56-5.71,5.71-5.71h0.18
	c3.15,0,5.71,2.56,5.71,5.71v5.91C260.82,128.55,258.26,131.11,255.11,131.11"/>
<path class="st1" d="M353,180.63c0-94.62-75.94-171.5-170.2-173.02C86.98,6.06,8.59,81.75,6.93,177.57
	c-0.81,47.06,17.16,89.91,46.92,121.57c8.17,8.69,12.71,20.16,12.71,32.08v41.89c0,31.53,25.56,57.09,57.09,57.09h112.59
	c31.53,0,57.09-25.56,57.09-57.09v-41.88c0-12.02,4.69-23.52,12.91-32.3C335.25,267.98,353,226.38,353,180.63z"/>
<path class="st2" d="M176.89,478.83h-60.84c-6.33,0-11.46-4.39-11.46-9.79c0-5.41,5.13-9.79,11.46-9.79h139.28"/>
<path class="st1" d="M117.92,478.83H231.3c6.33,0,11.46,4.39,11.46,9.79c0,5.41-5.13,9.79-11.46,9.79h-55.15"/>
<path class="st2" d="M227.13,518.01H124.86c-6.33,0-11.46-4.39-11.46-9.79c0-5.41,5.13-9.79,11.46-9.79h102.25"/>
</svg>
