<?xml version="1.0" encoding="utf-8"?>
<!-- Generator: Adobe Illustrator 23.0.5, SVG Export Plug-In . SVG Version: 6.00 Build 0)  -->
<svg version="1.1" id="Layer_1" xmlns="http://www.w3.org/2000/svg" xmlns:xlink="http://www.w3.org/1999/xlink" x="0px" y="0px"
	 viewBox="0 0 360 530" style="enable-background:new 0 0 360 530;" xml:space="preserve">
<style type="text/css">
	.st0{fill:#616260;}
	.st1{fill:none;stroke:#9A1918;stroke-width:12;stroke-miterlimit:10;}
	.st2{fill:none;stroke:#9A1918;stroke-width:12;stroke-linecap:round;stroke-miterlimit:10;}
</style>
<path class="st0" d="M223,247.74H94.34c-6.98,0-12.66-5.68-12.66-12.66v-83.02c0-6.98,5.68-12.66,12.66-12.66H223
	c6.98,0,12.66,5.68,12.66,12.66v83.02C235.66,242.06,229.98,247.74,223,247.74 M94.34,145.29c-3.73,0-6.77,3.04-6.77,6.77v83.02
	c0,3.73,3.04,6.77,6.77,6.77H223c3.73,0,6.77-3.04,6.77-6.77v-83.02c0-3.73-3.04-6.77-6.77-6.77H94.34z"/>
<path class="st0" d="M216.52,142.34h-5.89v-27.82c0-6.98,5.68-12.66,12.66-12.66h19.43v5.89H223.3c-3.73,0-6.77,3.04-6.77,6.77
	V142.34z"/>
<path class="st0" d="M177.37,145.29c-1.63,0-2.94-1.32-2.94-2.94V123.8c0-3.73-3.04-6.77-6.77-6.77H73.15
	c-1.63,0-2.94-1.32-2.94-2.94s1.32-2.94,2.94-2.94h94.51c6.98,0,12.66,5.68,12.66,12.66v18.55
	C180.31,143.97,178.99,145.29,177.37,145.29"/>
<path class="st0" d="M277.76,118.79h-24.14c-7.63,0-13.84-6.21-13.84-13.84s6.21-13.84,13.84-13.84h24.14
	c7.63,0,13.84,6.21,13.84,13.84S285.39,118.79,277.76,118.79 M253.62,97.01c-4.38,0-7.95,3.57-7.95,7.95c0,4.38,3.57,7.95,7.95,7.95
	h24.14c4.38,0,7.95-3.57,7.95-7.95c0-4.38-3.57-7.95-7.95-7.95H253.62z"/>
<path class="st0" d="M286.16,240.03c-1.42,0-2.84-0.37-4.13-1.12l-50.78-29.32c-1.41-0.81-1.89-2.61-1.08-4.02s2.61-1.89,4.02-1.08
	l50.78,29.32c1.07,0.62,2.02,0.21,2.37,0c0.36-0.21,1.19-0.82,1.19-2.06v-69.89c0-1.24-0.83-1.85-1.19-2.06
	c-0.36-0.21-1.3-0.62-2.37,0l-50.78,29.32c-1.41,0.81-3.21,0.33-4.02-1.08c-0.81-1.41-0.33-3.21,1.08-4.02l50.78-29.32
	c2.59-1.49,5.68-1.49,8.26,0c2.59,1.49,4.13,4.17,4.13,7.16v69.89c0,2.99-1.54,5.66-4.13,7.16
	C289,239.66,287.58,240.03,286.16,240.03"/>
<path class="st0" d="M126.24,215.58c-9.7,0-17.59-7.89-17.59-17.59c0-9.7,7.89-17.59,17.59-17.59c9.7,0,17.59,7.89,17.59,17.59
	C143.83,207.69,135.94,215.58,126.24,215.58 M126.24,186.29c-6.45,0-11.7,5.25-11.7,11.7s5.25,11.7,11.7,11.7
	c6.45,0,11.7-5.25,11.7-11.7S132.69,186.29,126.24,186.29"/>
<path class="st0" d="M192.02,215.58c-9.7,0-17.59-7.89-17.59-17.59c0-9.7,7.89-17.59,17.59-17.59c9.7,0,17.59,7.89,17.59,17.59
	C209.61,207.69,201.71,215.58,192.02,215.58 M192.02,186.29c-6.45,0-11.7,5.25-11.7,11.7s5.25,11.7,11.7,11.7
	c6.45,0,11.7-5.25,11.7-11.7S198.47,186.29,192.02,186.29"/>
<path class="st0" d="M192.02,186.29h-65.78c-1.63,0-2.94-1.32-2.94-2.94c0-1.63,1.32-2.94,2.94-2.94h65.78
	c1.63,0,2.94,1.32,2.94,2.94C194.96,184.97,193.64,186.29,192.02,186.29"/>
<path class="st1" d="M354.2,179.97c0-94.8-76.09-171.83-170.53-173.36C87.67,5.06,9.12,80.89,7.46,176.9
	c-0.82,47.15,17.2,90.09,47.01,121.8c8.18,8.7,12.74,20.2,12.74,32.14v41.97c0,31.59,25.61,57.2,57.2,57.2h112.81
	c31.59,0,57.2-25.61,57.2-57.2v-41.97c0-12.05,4.7-23.57,12.93-32.36C336.41,267.49,354.2,225.81,354.2,179.97z"/>
<path class="st2" d="M177.75,478.75h-60.96c-6.34,0-11.48-4.39-11.48-9.81c0-5.42,5.14-9.81,11.48-9.81h139.55"/>
<path class="st1" d="M118.66,478.75h113.61c6.34,0,11.48,4.39,11.48,9.81c0,5.42-5.14,9.81-11.48,9.81h-55.26"/>
<path class="st2" d="M228.09,518H125.62c-6.34,0-11.48-4.39-11.48-9.81c0-5.42,5.14-9.81,11.48-9.81h102.45"/>
</svg>
