<?xml version="1.0" encoding="utf-8"?>
<!-- Generator: Adobe Illustrator 23.0.5, SVG Export Plug-In . SVG Version: 6.00 Build 0)  -->
<svg version="1.1" id="Layer_1" xmlns="http://www.w3.org/2000/svg" xmlns:xlink="http://www.w3.org/1999/xlink" x="0px" y="0px"
	 viewBox="0 0 360 360" style="enable-background:new 0 0 360 360;" xml:space="preserve">
<style type="text/css">
	.st0{fill:#616260;}
	.st1{fill:none;stroke:#9A1918;stroke-width:12;stroke-miterlimit:10;}
</style>
<path class="st0" d="M215.8,141.18h-5.85V113.4c0-6.97,5.65-12.64,12.59-12.64h19.32v5.88h-19.32c-3.71,0-6.73,3.03-6.73,6.76
	V141.18z"/>
<path class="st0" d="M176.87,144.12c-1.62,0-2.93-1.32-2.93-2.94v-18.52c0-3.73-3.02-6.76-6.73-6.76H73.26
	c-1.62,0-2.93-1.32-2.93-2.94c0-1.62,1.31-2.94,2.93-2.94h93.96c6.94,0,12.59,5.67,12.59,12.64v18.52
	C179.8,142.81,178.49,144.12,176.87,144.12"/>
<path class="st0" d="M276.68,114.72h-24c-5.98,0-10.83-4.87-10.83-10.88s4.85-10.88,10.83-10.88h24c5.98,0,10.83,4.87,10.83,10.88
	S282.66,114.72,276.68,114.72"/>
<path class="st0" d="M231.9,205.8l50.48,29.28c3.53,2.04,7.93-0.51,7.93-4.6v-69.8c0-4.09-4.41-6.65-7.93-4.6l-50.48,29.28"/>
<path class="st0" d="M126.04,185.07c-6.41,0-11.63,5.24-11.63,11.69c0,6.44,5.22,11.69,11.63,11.69c6.41,0,11.63-5.24,11.63-11.69
	C137.68,190.31,132.46,185.07,126.04,185.07"/>
<path class="st0" d="M191.44,185.07c-6.41,0-11.63,5.24-11.63,11.69c0,6.44,5.22,11.69,11.63,11.69c6.42,0,11.63-5.24,11.63-11.69
	C203.07,190.31,197.85,185.07,191.44,185.07"/>
<path class="st0" d="M222.24,141.18H94.33c-5.33,0-9.66,4.34-9.66,9.7v82.92c0,5.36,4.32,9.7,9.66,9.7h127.91
	c5.33,0,9.66-4.34,9.66-9.7v-82.92C231.9,145.53,227.58,141.18,222.24,141.18 M191.44,214.32c-9.64,0-17.49-7.88-17.49-17.57
	c0-4.49,1.7-8.58,4.47-11.69h-39.35c2.77,3.11,4.47,7.2,4.47,11.69c0,9.69-7.85,17.57-17.49,17.57s-17.49-7.88-17.49-17.57
	c0-9.69,7.85-17.57,17.49-17.57h65.39c9.64,0,17.49,7.88,17.49,17.57C208.92,206.44,201.08,214.32,191.44,214.32"/>
<ellipse class="st1" cx="180.59" cy="179.8" rx="173.41" ry="174.2"/>
</svg>
