<?xml version="1.0" encoding="utf-8"?>
<!-- Generator: Adobe Illustrator 23.0.5, SVG Export Plug-In . SVG Version: 6.00 Build 0)  -->
<svg version="1.1" id="Layer_1" xmlns="http://www.w3.org/2000/svg" xmlns:xlink="http://www.w3.org/1999/xlink" x="0px" y="0px"
	 viewBox="0 0 360 530" style="enable-background:new 0 0 360 530;" xml:space="preserve">
<style type="text/css">
	.st0{fill:#616260;}
	.st1{fill:none;stroke:#9A1918;stroke-width:12;stroke-miterlimit:10;}
	.st2{fill:none;stroke:#9A1918;stroke-width:12;stroke-linecap:round;stroke-miterlimit:10;}
</style>
<path class="st0" d="M183.5,263.3c-2.39,0-4.72-0.91-6.55-2.66l-39.6-37.72c-1.57-1.5-3.63-2.32-5.81-2.32h-23.2
	c-6.76,0-12.27-5.5-12.27-12.27v-60.84c0-6.76,5.5-12.27,12.27-12.27h23.2c2.17,0,4.23-0.82,5.81-2.32l39.6-37.71
	c2.82-2.69,6.8-3.4,10.38-1.87c3.58,1.53,5.8,4.91,5.8,8.8V253.7c0,3.89-2.22,7.27-5.8,8.8C186.08,263.04,184.78,263.3,183.5,263.3
	 M108.34,141.11c-3.52,0-6.38,2.86-6.38,6.38v60.84c0,3.52,2.86,6.38,6.38,6.38h23.2c3.69,0,7.19,1.4,9.87,3.95l39.6,37.71
	c1.63,1.55,3.47,0.94,4,0.72c0.52-0.22,2.23-1.13,2.23-3.39V102.11c0-2.26-1.71-3.17-2.23-3.39c-0.52-0.22-2.36-0.84-4,0.72
	l-39.6,37.72c-2.67,2.54-6.18,3.95-9.87,3.95H108.34z"/>
<path class="st0" d="M223.93,221.7c-0.83,0-1.65-0.35-2.23-1.02c-1.06-1.23-0.92-3.09,0.31-4.15
	c12.02-10.37,18.92-25.41,18.92-41.27c0-15.48-6.62-30.28-18.17-40.61c-1.21-1.08-1.32-2.95-0.23-4.16
	c1.08-1.21,2.95-1.32,4.16-0.23c12.79,11.44,20.13,27.84,20.13,45c0,17.57-7.64,34.24-20.96,45.72
	C225.29,221.46,224.61,221.7,223.93,221.7"/>
<path class="st0" d="M248.9,246.02c-0.83,0-1.65-0.35-2.23-1.02c-1.06-1.23-0.92-3.09,0.31-4.15c19.16-16.53,30.15-40.5,30.15-65.78
	c0-24.68-10.56-48.27-28.96-64.74c-1.21-1.08-1.32-2.95-0.23-4.16c1.08-1.21,2.95-1.32,4.16-0.23
	c19.65,17.58,30.93,42.77,30.93,69.12c0,27-11.74,52.6-32.2,70.24C250.26,245.78,249.58,246.02,248.9,246.02"/>
<path class="st1" d="M353.55,179.97c0-94.8-76.09-171.83-170.53-173.36C87.02,5.06,8.47,80.89,6.81,176.9
	C6,224.05,24.01,266.99,53.82,298.7c8.18,8.7,12.74,20.2,12.74,32.14v41.97c0,31.59,25.61,57.2,57.2,57.2h112.81
	c31.59,0,57.2-25.61,57.2-57.2v-41.97c0-12.05,4.7-23.57,12.93-32.36C335.76,267.49,353.55,225.81,353.55,179.97z"/>
<path class="st2" d="M177.1,478.75h-60.96c-6.34,0-11.48-4.39-11.48-9.81c0-5.42,5.14-9.81,11.48-9.81h139.55"/>
<path class="st1" d="M118.01,478.75h113.61c6.34,0,11.48,4.39,11.48,9.81c0,5.42-5.14,9.81-11.48,9.81h-55.26"/>
<path class="st2" d="M227.44,518H124.97c-6.34,0-11.48-4.39-11.48-9.81c0-5.42,5.14-9.81,11.48-9.81h102.45"/>
</svg>
