<?xml version="1.0" encoding="utf-8"?>
<!-- Generator: Adobe Illustrator 23.0.5, SVG Export Plug-In . SVG Version: 6.00 Build 0)  -->
<svg version="1.1" id="Layer_1" xmlns="http://www.w3.org/2000/svg" xmlns:xlink="http://www.w3.org/1999/xlink" x="0px" y="0px"
	 viewBox="0 0 360 360" style="enable-background:new 0 0 360 360;" xml:space="preserve">
<style type="text/css">
	.st0{fill:#616260;}
	.st1{fill:none;stroke:#9A1918;stroke-width:12;stroke-miterlimit:10;}
</style>
<path class="st0" d="M176.43,96.66l-39.31,37.44c-2.1,2-4.88,3.11-7.78,3.11h-23.03c-5.11,0-9.25,4.14-9.25,9.25v60.4
	c0,5.11,4.14,9.25,9.25,9.25h23.03c2.9,0,5.68,1.11,7.78,3.11l39.31,37.44c4.19,3.99,11.12,1.02,11.12-4.77V101.42
	C187.55,95.64,180.62,92.67,176.43,96.66"/>
<path class="st0" d="M221.05,220.12c-0.82,0-1.64-0.34-2.21-1.01c-1.05-1.22-0.92-3.07,0.3-4.12
	c11.93-10.29,18.78-25.22,18.78-40.96c0-15.37-6.57-30.06-18.03-40.31c-1.2-1.08-1.31-2.92-0.23-4.13c1.08-1.2,2.92-1.31,4.13-0.23
	c12.7,11.36,19.98,27.64,19.98,44.67c0,17.44-7.58,33.99-20.8,45.39C222.4,219.89,221.72,220.12,221.05,220.12"/>
<path class="st0" d="M245.83,244.27c-0.82,0-1.64-0.34-2.21-1.01c-1.05-1.22-0.92-3.07,0.3-4.12c19.02-16.4,29.93-40.2,29.93-65.3
	c0-24.5-10.48-47.92-28.75-64.26c-1.2-1.08-1.31-2.92-0.23-4.13c1.08-1.2,2.92-1.31,4.13-0.23c19.51,17.45,30.7,42.46,30.7,68.61
	c0,26.8-11.65,52.21-31.96,69.72C247.19,244.03,246.51,244.27,245.83,244.27"/>
<circle class="st1" cx="179.86" cy="179.74" r="173.14"/>
</svg>
