<?xml version="1.0" encoding="utf-8"?>
<!-- Generator: Adobe Illustrator 23.0.5, SVG Export Plug-In . SVG Version: 6.00 Build 0)  -->
<svg version="1.1" id="Layer_1" xmlns="http://www.w3.org/2000/svg" xmlns:xlink="http://www.w3.org/1999/xlink" x="0px" y="0px"
	 viewBox="0 0 360 530" style="enable-background:new 0 0 360 530;" xml:space="preserve">
<style type="text/css">
	.st0{fill:none;stroke:#9A1918;stroke-width:12;stroke-miterlimit:10;}
	.st1{fill:none;stroke:#9A1918;stroke-width:12;stroke-linecap:round;stroke-miterlimit:10;}
	.st2{fill:none;stroke:#616260;stroke-width:12;stroke-miterlimit:10;}
	.st3{fill:#616260;}
</style>
<path class="st0" d="M354,180.6C354,85.72,277.85,8.62,183.33,7.09C87.24,5.54,8.62,81.44,6.96,177.53
	c-0.82,47.19,17.21,90.17,47.05,121.91c8.19,8.71,12.75,20.22,12.75,32.17v42.01c0,31.62,25.63,57.25,57.25,57.25h112.91
	c31.62,0,57.25-25.63,57.25-57.25v-42c0-12.06,4.7-23.59,12.94-32.39C336.2,268.2,354,226.48,354,180.6z"/>
<path class="st1" d="M177.39,479.63h-61.01c-6.35,0-11.49-4.4-11.49-9.82c0-5.42,5.14-9.82,11.49-9.82h139.67"/>
<path class="st0" d="M118.26,479.63h113.7c6.35,0,11.49,4.4,11.49,9.82c0,5.42-5.14,9.82-11.49,9.82h-55.3"/>
<path class="st1" d="M227.78,518.92H125.22c-6.35,0-11.49-4.4-11.49-9.82c0-5.42,5.14-9.82,11.49-9.82h102.54"/>
<path class="st2" d="M259.6,261.32H107.59c-5.38,0-9.74-4.36-9.74-9.74v-89.01h171.49v89.01
	C269.34,256.96,264.98,261.32,259.6,261.32z"/>
<path class="st2" d="M93.93,124.08l142.74-52.26c5.05-1.85,10.65,0.75,12.5,5.8l9.51,25.99L97.65,162.57l-9.52-25.99
	C86.28,131.53,88.88,125.93,93.93,124.08z"/>
<line class="st2" x1="97.85" y1="184.38" x2="269.34" y2="184.38"/>
<line class="st2" x1="106.91" y1="184.38" x2="140.13" y2="161.98"/>
<line class="st2" x1="150.78" y1="184.38" x2="184" y2="161.98"/>
<line class="st2" x1="195.14" y1="184.38" x2="228.36" y2="161.98"/>
<line class="st2" x1="237.44" y1="184.38" x2="270.66" y2="161.98"/>
<line class="st2" x1="136.89" y1="146.77" x2="91.24" y2="125.59"/>
<line class="st2" x1="178.09" y1="131.69" x2="131.81" y2="110.22"/>
<line class="st2" x1="219.75" y1="116.44" x2="172.57" y2="94.55"/>
<line class="st2" x1="257.77" y1="101.12" x2="213.18" y2="80.43"/>
<rect x="101.71" y="221.36" class="st3" width="2.65" height="4.71"/>
<rect x="105.14" y="221.36" class="st3" width="2.65" height="4.71"/>
<rect x="108.57" y="219.3" class="st3" width="2.65" height="8.84"/>
<rect x="111.99" y="214.66" class="st3" width="2.65" height="18.12"/>
<rect x="115.42" y="216.64" class="st3" width="2.65" height="14.14"/>
<rect x="118.84" y="212.22" class="st3" width="2.65" height="22.98"/>
<rect x="122.27" y="200.62" class="st3" width="2.65" height="46.19"/>
<rect x="125.69" y="207.36" class="st3" width="2.65" height="32.71"/>
<rect x="129.12" y="211.05" class="st3" width="2.65" height="25.34"/>
<rect x="132.54" y="215.32" class="st3" width="2.65" height="16.8"/>
<rect x="135.97" y="221.36" class="st3" width="2.65" height="4.71"/>
<rect x="139.4" y="200.62" class="st3" width="2.65" height="46.19"/>
<rect x="142.82" y="212.22" class="st3" width="2.65" height="22.98"/>
<rect x="146.25" y="215.02" class="st3" width="2.65" height="17.39"/>
<rect x="149.67" y="200.62" class="st3" width="2.65" height="46.19"/>
<rect x="153.1" y="194.25" class="st3" width="2.65" height="58.93"/>
<rect x="156.52" y="204.93" class="st3" width="2.65" height="37.57"/>
<rect x="159.95" y="207.07" class="st3" width="2.65" height="33.3"/>
<rect x="163.37" y="217.01" class="st3" width="2.65" height="13.41"/>
<rect x="166.8" y="221.36" class="st3" width="2.65" height="4.71"/>
<rect x="170.22" y="213.03" class="st3" width="2.65" height="21.36"/>
<rect x="173.65" y="210.24" class="st3" width="2.65" height="26.96"/>
<rect x="177.08" y="205.59" class="st3" width="2.65" height="36.24"/>
<rect x="180.5" y="212.22" class="st3" width="2.65" height="22.98"/>
<rect x="183.93" y="218.19" class="st3" width="2.65" height="11.05"/>
<rect x="187.35" y="221.36" class="st3" width="2.65" height="4.71"/>
<rect x="190.78" y="212.22" class="st3" width="2.65" height="22.98"/>
<rect x="194.2" y="200.62" class="st3" width="2.65" height="46.19"/>
<rect x="197.63" y="195.13" class="st3" width="2.65" height="57.16"/>
<rect x="201.05" y="191.6" class="st3" width="2.65" height="64.24"/>
<rect x="204.48" y="195.65" class="st3" width="2.65" height="56.13"/>
<rect x="207.91" y="193.22" class="st3" width="2.65" height="61"/>
<rect x="211.33" y="200.62" class="st3" width="2.65" height="46.19"/>
<rect x="214.76" y="215.32" class="st3" width="2.65" height="16.8"/>
<rect x="218.18" y="210.68" class="st3" width="2.65" height="26.08"/>
<rect x="221.61" y="207.07" class="st3" width="2.65" height="33.3"/>
<rect x="225.03" y="200.62" class="st3" width="2.65" height="46.19"/>
<rect x="228.46" y="212.22" class="st3" width="2.65" height="22.98"/>
<rect x="231.88" y="216.2" class="st3" width="2.65" height="15.03"/>
<rect x="235.31" y="221.36" class="st3" width="2.65" height="4.71"/>
<rect x="238.73" y="218.56" class="st3" width="2.65" height="10.31"/>
<rect x="242.16" y="212.22" class="st3" width="2.65" height="22.98"/>
<rect x="245.58" y="200.62" class="st3" width="2.65" height="46.19"/>
<rect x="249.01" y="206.11" class="st3" width="2.65" height="35.21"/>
<rect x="252.43" y="213.03" class="st3" width="2.65" height="21.36"/>
<rect x="255.86" y="217.01" class="st3" width="2.65" height="13.41"/>
<rect x="259.29" y="220.7" class="st3" width="2.65" height="6.04"/>
<rect x="262.71" y="221.36" class="st3" width="2.65" height="4.71"/>
</svg>
