<?xml version="1.0" encoding="utf-8"?>
<!-- Generator: Adobe Illustrator 23.0.5, SVG Export Plug-In . SVG Version: 6.00 Build 0)  -->
<svg version="1.1" id="Layer_1" xmlns="http://www.w3.org/2000/svg" xmlns:xlink="http://www.w3.org/1999/xlink" x="0px" y="0px"
	 viewBox="0 0 360 360" style="enable-background:new 0 0 360 360;" xml:space="preserve">
<style type="text/css">
	.st0{fill:none;stroke:#9A1918;stroke-width:12;stroke-miterlimit:10;}
	.st1{fill:#616260;}
</style>
<ellipse class="st0" cx="179.71" cy="179.75" rx="174.3" ry="174.25"/>
<path class="st1" d="M94.88,158.39v93.62c0,7.12,5.8,12.92,12.92,12.92h154.76c7.12,0,12.92-5.8,12.92-12.92v-93.62H94.88z
	 M269.48,252.01c0,3.81-3.1,6.92-6.92,6.92H107.8c-3.82,0-6.92-3.11-6.92-6.92v-87.62h168.6V252.01z"/>
<path class="st1" d="M100.88,186.59v65.42c0,3.81,3.1,6.92,6.92,6.92h154.76c3.82,0,6.92-3.11,6.92-6.92v-65.42H100.88z
	 M268.43,224.95h-3.49v1.76h-2.7v-1.76h-0.78v5.51h-2.7v-5.51h-0.79v9.56h-2.7v-9.56h-0.79v16.61h-2.7v-16.61h-0.79v22.2h-2.7v-22.2
	h-0.78v10.39h-2.71v-10.39h-0.78v3.94h-2.7v-3.94h-0.79v1.09h-2.7v-1.09h-0.79v6.34h-2.7v-6.34h-0.79v10.39h-2.7v-10.39h-0.78v22.2
	h-2.7v-22.2h-0.79v15.64h-2.7v-15.64h-0.79v11.96h-2.7v-11.96h-0.79v7.24h-2.7v-7.24h-0.78v22.2h-2.7v-22.2h-0.79v29.74h-2.7v-29.74
	h-0.79v27.26h-2.7v-27.26h-0.78v31.39h-2.7v-31.39h-0.79v27.79h-2.7v-27.79h-0.79v22.2h-2.7v-22.2h-0.79v10.39h-2.7v-10.39h-0.78
	v1.09h-2.7v-1.09h-0.79v4.31h-2.7v-4.31h-0.79v10.39h-2.7v-10.39h-0.79v17.14h-2.7v-17.14h-0.78v12.41h-2.71v-12.41h-0.78v9.56h-2.7
	v-9.56h-0.79v1.09h-2.7v-1.09h-0.79v5.51h-2.7v-5.51h-0.79v15.64h-2.7v-15.64h-0.78v17.81h-2.7v-17.81h-0.79v28.69h-2.7v-28.69
	h-0.79v22.2h-2.7v-22.2h-0.79v7.54h-2.69v-7.54h-0.79v10.39h-2.7v-10.39h-0.79v22.2h-2.7v-22.2h-0.79v1.09h-2.7v-1.09h-0.79v7.24
	h-2.69v-7.24h-0.79v11.59h-2.7v-11.59h-0.79v15.34h-2.7v-15.34h-0.79v22.2h-2.7v-22.2h-0.78v10.39h-2.7v-10.39h-0.79v5.89h-2.7
	v-5.89h-0.79v7.91h-2.7v-7.91h-0.79v3.19h-2.7v-3.19h-0.78v1.09h-2.71v-1.09h-0.78v1.09h-2.7v-4.8h2.7v1.09h0.78v-1.09h2.71v1.09
	h0.78v-3.19h2.7v3.19h0.79v-7.92h2.7v7.92h0.79v-5.89h2.7v5.89h0.79v-10.39h2.7v10.39h0.78v-22.2h2.7v22.2h0.79v-15.34h2.7v15.34
	h0.79v-11.59h2.7v11.59h0.79v-7.24h2.69v7.24h0.79v-1.09h2.7v1.09h0.79v-22.2h2.7v22.2h0.79v-10.39h2.7v10.39h0.79v-7.54h2.69v7.54
	h0.79v-22.2h2.7v22.2h0.79v-28.69h2.7v28.69h0.79v-17.82h2.7v17.82h0.78v-15.64h2.7v15.64h0.79v-5.52h2.7v5.52h0.79v-1.09h2.7v1.09
	h0.79v-9.57h2.7v9.57h0.78v-12.42h2.71v12.42h0.78v-17.14h2.7v17.14h0.79v-10.39h2.7v10.39h0.79v-4.32h2.7v4.32h0.79v-1.09h2.7v1.09
	h0.78v-10.39h2.7v10.39h0.79v-22.2h2.7v22.2h0.79v-27.79h2.7v27.79h0.79v-31.39h2.7v31.39h0.78v-27.27h2.7v27.27h0.79v-29.74h2.7
	v29.74h0.79v-22.2h2.7v22.2h0.78v-7.24h2.7v7.24h0.79v-11.97h2.7v11.97h0.79v-15.64h2.7v15.64h0.79v-22.2h2.7v22.2h0.78v-10.39h2.7
	v10.39h0.79v-6.34h2.7v6.34h0.79v-1.09h2.7v1.09h0.79v-3.94h2.7v3.94h0.78v-10.39h2.71v10.39h0.78v-22.2h2.7v22.2h0.79v-16.62h2.7
	v16.62h0.79v-9.57h2.7v9.57h0.79v-5.52h2.7v5.52h0.78v-1.77h2.7v1.77h3.49V224.95z"/>
<polygon class="st1" points="269.48,167.34 269.48,180.59 249.82,180.59 "/>
<polygon class="st1" points="263.11,164.39 239.08,180.59 206.76,180.59 230.79,164.39 "/>
<polygon class="st1" points="220.05,164.39 196.02,180.59 161.59,180.59 185.62,164.39 "/>
<polygon class="st1" points="174.88,164.39 150.85,180.59 116.93,180.59 140.96,164.39 "/>
<polygon class="st1" points="130.22,164.39 106.19,180.59 100.88,180.59 100.88,164.39 "/>
<path class="st1" d="M254.77,73.87c-1.19-3.24-3.57-5.83-6.7-7.28c-3.13-1.45-6.64-1.6-9.88-0.41l-145.33,53.2
	c-3.24,1.19-5.82,3.57-7.28,6.7c-1.45,3.13-1.59,6.64-0.41,9.88l9.71,26.52l1.01,2.76l18.71-6.85l150.88-55.24L254.77,73.87z
	 M222.96,112.33l-7.04,2.58l-35.37,12.95l-7.05,2.58l-34.89,12.77l-7.06,2.58l-32.09,11.75l-8.65-23.65
	c-0.64-1.73-0.56-3.61,0.22-5.29c0.21-0.45,0.46-0.87,0.76-1.26c0.79-1.05,1.87-1.86,3.14-2.32l3.42-1.25l33.96-12.44l7.98-2.92
	l34.44-12.61l7.97-2.92l32.46-11.89h0.01l7.96-2.91h0.01l17.11-6.27c3.59-1.31,7.57,0.54,8.88,4.12l6.27,17.12l2.39,6.53l-1.44,0.53
	L222.96,112.33z"/>
<path class="st1" d="M131.55,145.79l-32.09,11.75l-8.65-23.65c-0.64-1.73-0.56-3.61,0.22-5.29c0.21-0.45,0.46-0.87,0.76-1.26
	L131.55,145.79z"/>
<path class="st1" d="M255.4,93.05l-32.26-14.97l17.11-6.27c3.59-1.31,7.57,0.54,8.88,4.12L255.4,93.05z"/>
<polygon class="st1" points="222.96,112.33 223.25,111.7 182.7,92.88 215.16,80.99 215.17,80.99 256.35,100.11 "/>
<polygon class="st1" points="180.55,127.86 180.84,127.23 140.29,108.41 174.73,95.8 215.92,114.91 "/>
<polygon class="st1" points="138.61,143.21 138.9,142.58 98.35,123.77 132.31,111.33 173.5,130.44 "/>
<rect x="97.88" y="180.59" class="st1" width="174.6" height="6"/>
</svg>
