<?xml version="1.0" encoding="utf-8"?>
<!-- Generator: Adobe Illustrator 23.0.5, SVG Export Plug-In . SVG Version: 6.00 Build 0)  -->
<svg version="1.1" id="fd59ce54-f850-4dfc-bc34-dd7d379d600e"
	 xmlns="http://www.w3.org/2000/svg" xmlns:xlink="http://www.w3.org/1999/xlink" x="0px" y="0px" viewBox="0 0 1074.39 584.23"
	 style="enable-background:new 0 0 1074.39 584.23;" xml:space="preserve">
<style type="text/css">
	.st0{fill:#2F2E41;}
	.st1{fill:#B33936;}
	.st2{fill:none;stroke:#3F3D56;stroke-miterlimit:10;}
	.st3{fill:#3F3D56;}
	.st4{opacity:0.1;enable-background:new    ;}
	.st5{fill:#57B894;}
	.st6{fill:#FFFFFF;}
	.st7{opacity:0.3;fill:#6C63FF;enable-background:new    ;}
</style>
<title>page not found</title>
<path class="st0" d="M523.62,102.29c-85.94,0-147.65,55.14-147.65,183.8c0,145.81,61.71,184.41,147.65,184.41
	s151.33-42.27,151.33-184.41C674.95,134.15,609.56,102.29,523.62,102.29z M524.18,422.1c-59.53,0-90.63-34.92-90.63-135.92
	c0-89.11,32.37-136.1,91.9-136.1s91.9,30.87,91.9,136.1C617.36,384.63,583.71,422.1,524.18,422.1z"/>
<path class="st1" d="M324.5,367.8h-35.53V263.16c0-11.57-9.38-20.96-20.96-20.96h-8.33c-11.57,0-20.96,9.38-20.96,20.96l0,0V367.8
	H138.5c-6.61,0-11.96-5.36-11.96-11.96c0-1.95,0.48-3.87,1.39-5.59l106.08-200.78c5.41-10.23,1.49-22.91-8.74-28.32
	c-0.28-0.15-0.56-0.29-0.84-0.42l-6.26-2.96c-10.1-4.77-22.16-0.78-27.43,9.07L61.35,368.87c-2.2,4.12-3.36,8.72-3.36,13.4l0,0
	c0,15.69,12.72,28.42,28.42,28.42c0,0,0,0,0,0h152.32v66.17c0,13.87,11.25,25.12,25.12,25.12l0,0h0c13.87,0,25.12-11.25,25.12-25.12
	l0,0v-66.17h35.53c11.84,0,21.44-9.6,21.44-21.44l0,0C345.95,377.4,336.35,367.8,324.5,367.8L324.5,367.8z"/>
<path class="st1" d="M982.5,368.8h-35.53V264.16c0-11.57-9.38-20.96-20.96-20.96h-8.33c-11.57,0-20.96,9.38-20.96,20.96l0,0V368.8
	H796.5c-6.61,0-11.96-5.36-11.96-11.96c0-1.95,0.48-3.87,1.39-5.59L892,150.46c5.41-10.23,1.49-22.91-8.74-28.32
	c-0.28-0.15-0.56-0.29-0.84-0.42l-6.26-2.96c-10.1-4.77-22.16-0.78-27.43,9.07L719.35,369.87c-2.2,4.12-3.36,8.72-3.36,13.4l0,0
	c0,15.69,12.72,28.42,28.42,28.42l0,0h152.32v66.17c0,13.87,11.25,25.12,25.12,25.12c0,0,0,0,0,0l0,0
	c13.87,0,25.12-11.25,25.12-25.12c0,0,0,0,0,0v-66.17h35.53c11.84,0,21.44-9.6,21.44-21.44l0,0l0,0
	C1003.94,378.4,994.34,368.8,982.5,368.8L982.5,368.8z"/>
<path class="st2" d="M334.31,356.54h-35.53V251.9c0-11.57-9.38-20.96-20.96-20.96l0,0h-8.33c-11.57,0-20.96,9.38-20.96,20.96v0
	v104.64H148.3c-6.61,0-11.96-5.36-11.96-11.96c0-1.95,0.48-3.87,1.39-5.59l106.08-200.78c5.41-10.23,1.49-22.91-8.74-28.32
	c-0.28-0.15-0.56-0.29-0.84-0.42l-6.26-2.96c-10.1-4.77-22.16-0.78-27.43,9.07L71.16,357.62c-2.2,4.12-3.36,8.72-3.36,13.4l0,0
	c0,15.69,12.72,28.42,28.42,28.42h152.32v66.17c0,13.87,11.25,25.12,25.12,25.12l0,0h0c13.87,0,25.12-11.25,25.12-25.12l0,0v-66.17
	h35.53c11.84,0,21.44-9.6,21.44-21.44l0,0C355.75,366.14,346.15,356.54,334.31,356.54z"/>
<path class="st2" d="M1000.88,356.54h-35.53V251.9c0-11.57-9.38-20.96-20.96-20.96l0,0h-8.33c-11.57,0-20.96,9.38-20.96,20.96v0
	v104.64H814.88c-6.61,0-11.96-5.36-11.96-11.96c0-1.95,0.48-3.87,1.39-5.59l106.08-200.78c5.41-10.23,1.49-22.91-8.74-28.32
	c-0.28-0.15-0.56-0.29-0.84-0.42l-6.26-2.96c-10.1-4.77-22.16-0.78-27.43,9.07L737.73,357.62c-2.2,4.12-3.36,8.72-3.36,13.4l0,0
	c0,15.69,12.72,28.42,28.42,28.42l0,0h152.32v66.17c0,13.87,11.25,25.12,25.12,25.12c0,0,0,0,0,0l0,0
	c13.87,0,25.12-11.25,25.12-25.12c0,0,0,0,0,0v-66.17h35.53c11.84,0,21.44-9.6,21.44-21.44l0,0l0,0
	C1022.32,366.14,1012.72,356.54,1000.88,356.54C1000.88,356.54,1000.88,356.54,1000.88,356.54z"/>
<path class="st2" d="M543.22,91.26c-85.94,0-147.65,55.14-147.65,183.8c0,145.81,61.71,184.41,147.65,184.41
	s151.33-42.27,151.33-184.41C694.55,123.12,629.17,91.26,543.22,91.26z M543.79,411.07c-59.53,0-90.63-34.92-90.63-135.92
	c0-89.11,32.37-136.1,91.9-136.1s91.9,30.87,91.9,136.1C636.96,373.6,603.32,411.07,543.79,411.07L543.79,411.07z"/>
<path class="st3" d="M579.44,119.47c-0.78,3.19-4.13,5.75-7.84,7.54c-7.8,3.76-17.43,4.88-26.76,5.25c-2.38,0.14-4.77,0.1-7.14-0.13
	c-4.6-0.45-8.92-2.43-12.25-5.63c-0.78-0.51-1-1.55-0.49-2.33c0.14-0.21,0.32-0.39,0.53-0.52c4.97-5.46,13.26-8.81,21.62-11.22
	c6.33-1.83,17.38-6.56,24.29-5.92C578.08,107.13,580.42,115.44,579.44,119.47z"/>
<path class="st4" d="M579.44,119.47c-0.78,3.19-4.13,5.75-7.84,7.54c-7.8,3.76-17.43,4.88-26.76,5.25c-2.38,0.14-4.77,0.1-7.14-0.13
	c-4.6-0.45-8.92-2.43-12.25-5.63c-0.78-0.51-1-1.55-0.49-2.33c0.14-0.21,0.32-0.39,0.53-0.52c4.97-5.46,13.26-8.81,21.62-11.22
	c6.33-1.83,17.38-6.56,24.29-5.92C578.08,107.13,580.42,115.44,579.44,119.47z"/>
<path class="st5" d="M1010.06,354.83"/>
<path class="st2" d="M1035.31,378.12"/>
<path class="st2" d="M1035.13,479.07"/>
<path class="st2" d="M1010.91,352.07"/>
<path class="st2" d="M1031.38,418.39"/>
<path class="st2" d="M28.68,487.16"/>
<path class="st5" d="M53.53,369.69"/>
<path class="st2" d="M54.28,367.27"/>
<path class="st2" d="M47.26,408.96c-0.01-0.01-0.02-0.01-0.03-0.01"/>
<path class="st5" d="M31.74,458.27"/>
<path class="st2" d="M32.31,456.46"/>
<path class="st2" d="M23.58,458"/>
<ellipse class="st0" cx="484.14" cy="254.4" rx="17" ry="22"/>
<ellipse class="st0" cx="576.64" cy="254.9" rx="17" ry="22"/>
<path class="st0" d="M563.64,319.9c0,9.94-13.88,18-31,18s-31-8.06-31-18c0-8.61,10.41-15.81,24.32-17.57
	c2.21-0.29,4.45-0.44,6.68-0.43c3.74-0.01,7.48,0.39,11.13,1.2C555.39,305.69,563.64,312.24,563.64,319.9z"/>
<ellipse class="st2" cx="488.14" cy="249.4" rx="17" ry="22"/>
<ellipse class="st2" cx="580.64" cy="249.9" rx="17" ry="22"/>
<ellipse class="st2" cx="536.64" cy="314.9" rx="31" ry="18"/>
<path class="st6" d="M544.14,304.6c0.01,1.26-0.46,2.47-1.32,3.39c-0.82,0.89-1.97,1.4-3.18,1.41h-10c-2.57-0.09-4.58-2.23-4.5-4.8
	c-0.01-0.97,0.28-1.93,0.82-2.74c2.21-0.31,4.45-0.46,6.68-0.46c3.75-0.01,7.48,0.42,11.13,1.28
	C544.02,303.29,544.14,303.94,544.14,304.6z"/>
<circle class="st6" cx="488.14" cy="243.4" r="5"/>
<circle class="st6" cx="581.14" cy="243.4" r="5"/>
<circle class="st7" cx="586.14" cy="290.4" r="5"/>
<circle class="st7" cx="464.14" cy="290.4" r="5"/>
</svg>
