<?xml version="1.0" encoding="utf-8"?>
<!-- Generator: Adobe Illustrator 23.0.5, SVG Export Plug-In . SVG Version: 6.00 Build 0)  -->
<svg version="1.1" id="Layer_1" xmlns="http://www.w3.org/2000/svg" xmlns:xlink="http://www.w3.org/1999/xlink" x="0px" y="0px"
	 viewBox="0 0 360 530" style="enable-background:new 0 0 360 530;" xml:space="preserve">
<style type="text/css">
	.st0{fill:#616260;}
	.st1{fill:none;stroke:#9A1918;stroke-width:12;stroke-miterlimit:10;}
	.st2{fill:none;stroke:#9A1918;stroke-width:12;stroke-linecap:round;stroke-miterlimit:10;}
</style>
<path class="st0" d="M248.85,254.79h-137.7c-10.03,0-18.2-8.16-18.2-18.2V134.48c0-10.03,8.16-18.2,18.2-18.2h97.91
	c1.62,0,2.94,1.32,2.94,2.94c0,1.62-1.32,2.94-2.94,2.94h-97.91c-6.79,0-12.31,5.52-12.31,12.31V236.6
	c0,6.79,5.52,12.31,12.31,12.31h137.7c6.79,0,12.31-5.52,12.31-12.31v-82.14c0-1.63,1.32-2.94,2.94-2.94c1.62,0,2.94,1.32,2.94,2.94
	v82.14C267.04,246.63,258.88,254.79,248.85,254.79"/>
<path class="st0" d="M180,269.57c-1.62,0-2.94-1.32-2.94-2.94v-14.78c0-1.62,1.32-2.94,2.94-2.94c1.62,0,2.94,1.32,2.94,2.94v14.78
	C182.94,268.25,181.62,269.57,180,269.57"/>
<path class="st0" d="M232.71,269.57H127.28c-1.62,0-2.94-1.32-2.94-2.94c0-1.62,1.32-2.94,2.94-2.94h105.42
	c1.62,0,2.94,1.32,2.94,2.94C235.65,268.25,234.33,269.57,232.71,269.57"/>
<path class="st0" d="M261.21,225.9H98.78c-1.62,0-2.94-1.32-2.94-2.94c0-1.62,1.32-2.94,2.94-2.94h162.43
	c1.62,0,2.94,1.32,2.94,2.94C264.15,224.58,262.83,225.9,261.21,225.9"/>
<path class="st0" d="M187.21,237.18c0,3.99-3.23,7.22-7.22,7.22c-3.99,0-7.22-3.23-7.22-7.22c0-3.99,3.23-7.22,7.22-7.22
	C183.98,229.97,187.21,233.2,187.21,237.18"/>
<path class="st0" d="M160.71,158.78c0.87,0,1.3,0.39,1.54,1.2l8.96,30.34c0.24,0.77-0.05,1.2-0.87,1.2h-4.33
	c-0.82,0-1.15-0.43-1.4-1.2l-1.69-5.88h-8.96l-1.69,5.88c-0.24,0.77-0.58,1.2-1.44,1.2h-3.9c-0.87,0-1.16-0.43-0.91-1.2l9.01-30.34
	c0.24-0.82,0.63-1.2,1.49-1.2H160.71z M159.89,173.95c-0.63-1.98-1.35-8.14-1.4-8.77c-0.1,0.63-0.91,6.69-1.49,8.72l-1.64,5.39h6.12
	L159.89,173.95z"/>
<path class="st0" d="M176.31,191.53c-0.77,0-1.01-0.43-1.01-1.25v-30.25c0-0.87,0.29-1.25,1.16-1.25h10.5
	c8.72,0,11.75,3.8,11.75,7.85v17.05c0,4.05-3.03,7.85-11.75,7.85H176.31z M181.8,164.17v21.96h5.15c3.28,0,5.25-1.2,5.25-3.61
	v-14.74c0-2.41-1.97-3.61-5.25-3.61H181.8z"/>
<path class="st0" d="M241.93,204.06c-1.12,0-2.14-0.63-2.64-1.64l-27.19-55.14c-1.81-2.66-3.23-5.55-4.23-8.59l-0.08-0.16
	c-0.17-0.34-0.26-0.7-0.29-1.06c-0.87-3-1.33-6.1-1.38-9.22c-0.27-19.18,15.12-35.01,34.31-35.27c9.27-0.09,18.08,3.37,24.74,9.85
	c6.66,6.48,10.4,15.17,10.53,24.46c0.04,3.14-0.34,6.26-1.13,9.3c-0.02,0.35-0.1,0.69-0.25,1.02l-0.08,0.17
	c-0.92,3.06-2.26,5.99-3.99,8.7l-25.65,55.88c-0.47,1.03-1.5,1.7-2.63,1.71H241.93z M213.36,136.56c0.01,0.04,0.03,0.07,0.04,0.11
	c0.85,2.64,2.09,5.15,3.67,7.45c0.08,0.12,0.15,0.24,0.21,0.37l24.55,49.79l23.15-50.45c0.06-0.13,0.13-0.25,0.21-0.37
	c1.52-2.34,2.68-4.88,3.46-7.55c0.01-0.04,0.02-0.08,0.04-0.12c0.01-0.07,0.03-0.14,0.05-0.21c0.75-2.68,1.11-5.44,1.07-8.22
	c-0.11-7.72-3.22-14.94-8.75-20.32c-5.54-5.39-12.86-8.33-20.56-8.18c-15.94,0.22-28.73,13.37-28.51,29.31
	c0.04,2.78,0.48,5.53,1.3,8.19C213.32,136.42,213.34,136.49,213.36,136.56 M240.9,145.77c-9.81,0-17.86-7.91-18-17.75
	c-0.07-4.81,1.74-9.36,5.1-12.8c3.35-3.45,7.85-5.38,12.66-5.45c0.08,0,0.17,0,0.25,0c9.81,0,17.86,7.91,18,17.75
	c0.07,4.81-1.74,9.36-5.1,12.8c-3.35,3.45-7.85,5.38-12.66,5.45C241.07,145.77,240.99,145.77,240.9,145.77 M240.91,115.65
	c-0.06,0-0.11,0-0.17,0c-3.24,0.04-6.26,1.35-8.52,3.67c-2.26,2.32-3.48,5.38-3.43,8.62c0.09,6.63,5.51,11.95,12.12,11.95
	c0.06,0,0.11,0,0.17,0c3.24-0.04,6.26-1.35,8.52-3.67c2.26-2.32,3.48-5.38,3.43-8.62C252.94,120.97,247.51,115.65,240.91,115.65"/>
<path class="st1" d="M354,180.25C354,85.56,278,8.61,183.67,7.09C87.77,5.54,9.32,81.29,7.66,177.19
	c-0.81,47.09,17.18,89.99,46.96,121.66c8.17,8.69,12.72,20.18,12.72,32.11v41.92c0,31.56,25.58,57.14,57.14,57.14h112.68
	c31.56,0,57.14-25.58,57.14-57.14v-41.92c0-12.03,4.69-23.54,12.92-32.32C336.23,267.67,354,226.04,354,180.25z"/>
<path class="st2" d="M177.75,478.68h-60.89c-6.33,0-11.47-4.39-11.47-9.8c0-5.41,5.13-9.8,11.47-9.8h139.39"/>
<path class="st1" d="M118.73,478.68h113.47c6.33,0,11.47,4.39,11.47,9.8c0,5.41-5.13,9.8-11.47,9.8h-55.19"/>
<path class="st2" d="M228.03,517.89H125.68c-6.33,0-11.47-4.39-11.47-9.8c0-5.41,5.13-9.8,11.47-9.8h102.34"/>
</svg>
