<?xml version="1.0" encoding="utf-8"?>
<!-- Generator: Adobe Illustrator 23.0.5, SVG Export Plug-In . SVG Version: 6.00 Build 0)  -->
<svg version="1.1" id="Layer_1" xmlns="http://www.w3.org/2000/svg" xmlns:xlink="http://www.w3.org/1999/xlink" x="0px" y="0px"
	 viewBox="0 0 360 360" style="enable-background:new 0 0 360 360;" xml:space="preserve">
<style type="text/css">
	.st0{fill:#616260;}
	.st1{fill:none;stroke:#9A1918;stroke-width:12;stroke-miterlimit:10;}
</style>
<path class="st0" d="M178.07,267.76c-1.62,0-2.93-1.31-2.93-2.93v-14.71c0-1.62,1.31-2.93,2.93-2.93c1.62,0,2.93,1.31,2.93,2.93
	v14.71C181,266.45,179.69,267.76,178.07,267.76"/>
<path class="st0" d="M230.56,267.76H125.59c-1.62,0-2.93-1.31-2.93-2.93c0-1.62,1.31-2.93,2.93-2.93h104.97
	c1.62,0,2.93,1.31,2.93,2.93C233.48,266.45,232.17,267.76,230.56,267.76"/>
<path class="st0" d="M158.05,172.56c-0.62-1.97-1.34-8.1-1.39-8.73c-0.09,0.62-0.91,6.66-1.49,8.68l-1.63,5.37h6.09L158.05,172.56z"
	/>
<path class="st0" d="M190.23,181.09v-14.67c0-2.4-1.97-3.6-5.23-3.6h-5.13v21.87H185C188.26,184.69,190.23,183.49,190.23,181.09"/>
<path class="st0" d="M238.89,138.64L238.89,138.64c3.22-0.04,6.24-1.34,8.48-3.65c2.25-2.31,3.46-5.36,3.42-8.58
	c-0.09-6.6-5.49-11.9-12.06-11.9c-0.06,0-0.11,0-0.17,0c-3.22,0.04-6.24,1.34-8.48,3.65c-2.25,2.31-3.46,5.36-3.42,8.58
	C226.74,133.4,232.2,138.7,238.89,138.64"/>
<path class="st0" d="M262.87,101.74c-6.63-6.45-15.38-9.9-24.63-9.8c-14.66,0.2-27.49,9.7-32.22,23.2h-96.49
	c-9.99,0-18.12,8.13-18.12,18.12v101.67c0,9.99,8.13,18.12,18.12,18.12h137.1c9.99,0,18.12-8.13,18.12-18.12v-81.78
	c0-0.26-0.05-0.52-0.11-0.76l3.3-7.19c1.72-2.7,3.06-5.61,3.97-8.66l0.08-0.17c0.15-0.33,0.23-0.67,0.25-1.02
	c0.79-3.02,1.17-6.13,1.13-9.26C273.23,116.84,269.5,108.19,262.87,101.74 M225.87,114.08c3.34-3.43,7.81-5.36,12.6-5.43
	c0.08,0,0.17,0,0.25,0c9.77,0,17.78,7.88,17.92,17.68c0.07,4.79-1.74,9.31-5.07,12.75c-3.34,3.43-7.81,5.36-12.6,5.43h0
	c-0.09,0-0.17,0-0.25,0c-9.77,0-17.78-7.88-17.92-17.68C220.73,122.04,222.53,117.51,225.87,114.08 M173.4,158.7
	c0-0.86,0.29-1.25,1.15-1.25H185c8.68,0,11.7,3.79,11.7,7.82v16.98c0,4.03-3.02,7.82-11.7,7.82h-10.6c-0.77,0-1.01-0.43-1.01-1.25
	V158.7z M144.24,188.86l8.97-30.21c0.24-0.81,0.62-1.2,1.49-1.2h4.17c0.86,0,1.29,0.38,1.53,1.2l8.92,30.21
	c0.24,0.77-0.05,1.2-0.86,1.2h-4.32c-0.81,0-1.15-0.43-1.39-1.2l-1.68-5.85h-8.92l-1.68,5.85c-0.24,0.77-0.58,1.2-1.44,1.2h-3.89
	C144.29,190.06,144,189.63,144.24,188.86 M178.07,242.7c-3.97,0-7.19-3.22-7.19-7.19c0-3.97,3.22-7.19,7.19-7.19
	c3.97,0,7.19,3.22,7.19,7.19C185.26,239.48,182.04,242.7,178.07,242.7 M258.93,224.28H97.21v-5.86h161.72V224.28z M239.83,206.42
	L210.04,146c-1.8-2.65-3.22-5.53-4.22-8.55l-1.12-4.33c-0.19-1-0.34-2.01-0.44-3.02c-0.06-0.54-0.16-1.66-0.18-3.05
	c-0.02-1.47,0.05-3.47,0.41-5.88c1.98,0,3.96-0.01,5.94-0.01c-0.36,1.9-0.53,3.86-0.5,5.81c0.04,2.76,0.47,5.51,1.3,8.15l0.17,0.56
	c0.85,2.54,2.05,4.95,3.58,7.18l0.21,0.36l24.44,49.57c6.39-13.95,12.77-27.9,19.16-41.85l0.13,13.84
	C252.56,178.67,246.2,192.55,239.83,206.42"/>
<ellipse transform="matrix(0.9999 -0.0102 0.0102 0.9999 -1.8268 1.8411)" class="st1" cx="179.53" cy="179.97" rx="173.47" ry="173.47"/>
</svg>
