<?xml version="1.0" encoding="utf-8"?>
<!-- Generator: Adobe Illustrator 23.0.5, SVG Export Plug-In . SVG Version: 6.00 Build 0)  -->
<svg version="1.1" id="Layer_1" xmlns="http://www.w3.org/2000/svg" xmlns:xlink="http://www.w3.org/1999/xlink" x="0px" y="0px"
	 viewBox="0 0 360 530" style="enable-background:new 0 0 360 530;" xml:space="preserve">
<style type="text/css">
	.st0{fill:#616260;}
	.st1{fill:none;stroke:#9A1918;stroke-width:12;stroke-miterlimit:10;}
	.st2{fill:none;stroke:#9A1918;stroke-width:12;stroke-linecap:round;stroke-miterlimit:10;}
</style>
<path class="st0" d="M179.91,246.8c-0.46,0-0.91-0.11-1.33-0.32l-54.5-27.72c-0.99-0.5-1.61-1.51-1.61-2.62v-76.42
	c0-1.02,0.53-1.97,1.4-2.51c0.87-0.53,1.96-0.58,2.87-0.11l54.5,27.72c0.99,0.5,1.61,1.51,1.61,2.62v76.42c0,1.02-0.53,1.97-1.4,2.5
	C180.98,246.66,180.45,246.8,179.91,246.8 M128.35,214.34l48.63,24.73v-69.82l-48.63-24.73V214.34z"/>
<path class="st0" d="M179.91,246.8c-0.53,0-1.07-0.15-1.54-0.43c-0.87-0.53-1.4-1.48-1.4-2.5v-76.42c0-1.11,0.62-2.12,1.61-2.62
	l54.5-27.72c0.91-0.46,2-0.42,2.87,0.11c0.87,0.53,1.4,1.48,1.4,2.5v76.42c0,1.11-0.62,2.12-1.61,2.62l-54.5,27.72
	C180.83,246.7,180.37,246.8,179.91,246.8 M182.85,169.25v69.82l48.63-24.73v-69.82L182.85,169.25z"/>
<path class="st0" d="M125.41,142.67c-1.09,0-2.14-0.61-2.64-1.66c-0.71-1.46-0.1-3.22,1.36-3.93l54.97-26.7
	c0.82-0.4,1.77-0.39,2.59,0.01l54.03,26.7c1.46,0.72,2.05,2.48,1.33,3.94c-0.72,1.45-2.48,2.05-3.94,1.33l-52.74-26.06l-53.68,26.07
	C126.28,142.57,125.84,142.67,125.41,142.67"/>
<path class="st0" d="M179.91,172.04c-1.62,0-2.94-1.32-2.94-2.94V84.55c0-1.62,1.32-2.94,2.94-2.94c1.62,0,2.94,1.31,2.94,2.94
	v84.55C182.85,170.72,181.54,172.04,179.91,172.04"/>
<polygon class="st0" points="187.6,89.79 179.92,61.12 172.23,89.79 "/>
<path class="st0" d="M97.09,232.04c-1.07,0-2.1-0.59-2.62-1.61c-0.74-1.45-0.16-3.21,1.29-3.95l82.83-42.11
	c1.45-0.74,3.21-0.16,3.95,1.29c0.73,1.45,0.16,3.22-1.29,3.95l-82.83,42.11C97.99,231.93,97.54,232.04,97.09,232.04"/>
<polygon class="st0" points="98.27,219.87 76.2,239.72 105.24,233.57 "/>
<path class="st0" d="M262.75,232.03c-0.45,0-0.9-0.1-1.33-0.32l-82.83-42.1c-1.45-0.74-2.02-2.5-1.29-3.95
	c0.74-1.45,2.5-2.02,3.95-1.29l82.83,42.1c1.45,0.74,2.02,2.51,1.29,3.95C264.85,231.44,263.82,232.03,262.75,232.03"/>
<polygon class="st0" points="254.6,233.56 283.64,239.7 261.56,219.86 "/>
<path class="st1" d="M354,181.07C354,86.44,278.05,9.55,183.79,8.03C87.95,6.48,9.55,82.18,7.89,178.01
	c-0.81,47.06,17.16,89.92,46.93,121.58c8.17,8.69,12.71,20.16,12.71,32.08v41.9c0,31.53,25.56,57.1,57.1,57.1h112.61
	c31.53,0,57.1-25.56,57.1-57.1v-41.89c0-12.02,4.69-23.53,12.91-32.3C336.24,268.43,354,226.82,354,181.07z"/>
<path class="st2" d="M177.87,479.3h-60.85c-6.33,0-11.46-4.39-11.46-9.8c0-5.41,5.13-9.8,11.46-9.8h139.3"/>
<path class="st1" d="M118.89,479.3h113.4c6.33,0,11.46,4.39,11.46,9.8c0,5.41-5.13,9.8-11.46,9.8h-55.15"/>
<path class="st2" d="M228.12,518.48H125.83c-6.33,0-11.46-4.39-11.46-9.8c0-5.41,5.13-9.8,11.46-9.8H228.1"/>
</svg>
