<?xml version="1.0" encoding="utf-8"?>
<!-- Generator: Adobe Illustrator 23.0.5, SVG Export Plug-In . SVG Version: 6.00 Build 0)  -->
<svg version="1.1" id="Layer_1" xmlns="http://www.w3.org/2000/svg" xmlns:xlink="http://www.w3.org/1999/xlink" x="0px" y="0px"
	 viewBox="0 0 360 360" style="enable-background:new 0 0 360 360;" xml:space="preserve">
<style type="text/css">
	.st0{fill:#616260;}
	.st1{fill:none;stroke:#9A1918;stroke-width:12;stroke-miterlimit:10;}
</style>
<path class="st0" d="M284.42,238.12l-23.46-21.08l-2.29,4.49l-20.06-10.2v-72.6c0-0.07-0.01-0.13-0.02-0.19
	c-0.01-0.11-0.01-0.22-0.03-0.33c-0.02-0.1-0.04-0.2-0.07-0.29c-0.03-0.1-0.05-0.19-0.09-0.28c-0.04-0.1-0.08-0.19-0.13-0.28
	c-0.04-0.09-0.09-0.17-0.14-0.26c-0.05-0.09-0.11-0.17-0.17-0.25c-0.06-0.08-0.12-0.16-0.19-0.23c-0.07-0.08-0.15-0.14-0.22-0.21
	c-0.07-0.06-0.15-0.13-0.23-0.19c-0.09-0.07-0.19-0.12-0.29-0.18c-0.05-0.03-0.1-0.07-0.16-0.1l-52.44-25.92V91.06h5.04l-8.16-30.47
	l-8.17,30.47h5.04v19.41l-52.42,25.46c-0.06,0.03-0.11,0.07-0.16,0.1c-0.1,0.06-0.2,0.11-0.3,0.18c-0.08,0.06-0.15,0.12-0.23,0.19
	c-0.08,0.07-0.15,0.13-0.22,0.21c-0.07,0.08-0.13,0.15-0.19,0.24c-0.06,0.08-0.12,0.16-0.17,0.24c-0.05,0.08-0.1,0.17-0.14,0.26
	c-0.04,0.09-0.09,0.18-0.13,0.28c-0.04,0.09-0.06,0.19-0.09,0.29c-0.03,0.1-0.05,0.19-0.07,0.29c-0.02,0.11-0.03,0.23-0.04,0.34
	c0,0.07-0.02,0.13-0.02,0.19v72.61l-20.06,10.2l-2.29-4.49l-23.46,21.09l30.86-6.53l-2.29-4.5l18.93-9.62c0,0,0,0,0,0l54.18,27.55
	c0.12,0.06,0.25,0.09,0.38,0.14c0.09,0.03,0.17,0.07,0.26,0.1c0.26,0.07,0.52,0.11,0.78,0.11h0h0c0.26,0,0.52-0.04,0.78-0.11
	c0.09-0.02,0.17-0.06,0.26-0.1c0.13-0.04,0.26-0.08,0.38-0.14l54.18-27.55c0,0,0.01,0,0.01-0.01l18.93,9.62l-2.28,4.49
	L284.42,238.12z M124.27,215.96c0,0,0-0.01,0-0.01C124.27,215.95,124.27,215.96,124.27,215.96 M124.04,215.14
	c-0.02-0.14-0.03-0.29-0.03-0.43C124.01,214.85,124.02,215,124.04,215.14 M232.37,143.83l-47.93,24.38v15.59l47.93,24.36v4.63
	l-2.34,1.19l-45.59-23.17v46.36l-3.12,1.59l-3.12-1.59V190.8l-45.59,23.18l-2.35-1.19v-4.62l47.94-24.37v-15.59l-47.94-24.38v-3.14
	l3.89-1.89l44.04,22.4v-43.79l3.58-1.74l2.67,1.32v44.21l44.09-22.42l3.85,1.9V143.83z M238.54,215.37
	c-0.01,0.06-0.02,0.13-0.04,0.19C238.51,215.5,238.52,215.43,238.54,215.37 M238.38,215.87c-0.01,0.03-0.02,0.06-0.03,0.08
	C238.36,215.93,238.37,215.9,238.38,215.87 M238.17,216.31c0,0.01-0.01,0.01-0.01,0.02C238.16,216.32,238.16,216.32,238.17,216.31
	 M238.58,215.14c0.02-0.14,0.03-0.29,0.03-0.43C238.61,214.85,238.61,215,238.58,215.14"/>
<circle class="st1" cx="179.92" cy="180.68" r="173.08"/>
</svg>
