<?xml version="1.0" encoding="utf-8"?>
<!-- Generator: Adobe Illustrator 23.0.5, SVG Export Plug-In . SVG Version: 6.00 Build 0)  -->
<svg version="1.1" id="Layer_1" xmlns="http://www.w3.org/2000/svg" xmlns:xlink="http://www.w3.org/1999/xlink" x="0px" y="0px"
	 viewBox="0 0 360 530" style="enable-background:new 0 0 360 530;" xml:space="preserve">
<style type="text/css">
	.st0{fill:#616260;}
	.st1{fill:none;stroke:#9A1918;stroke-width:12;stroke-miterlimit:10;}
	.st2{fill:none;stroke:#9A1918;stroke-width:12;stroke-linecap:round;stroke-miterlimit:10;}
</style>
<path class="st0" d="M197.14,263.92h-35.29c-1.1,0-2.1-0.61-2.61-1.58l-28.29-54.11c-0.45-0.86-0.45-1.88,0-2.73l45.94-87.84
	c0.51-0.97,1.51-1.58,2.61-1.58c1.1,0,2.1,0.61,2.61,1.58l45.94,87.84c0.45,0.85,0.45,1.87,0,2.73l-28.29,54.11
	C199.25,263.31,198.24,263.92,197.14,263.92 M163.64,258.03h31.72l26.75-51.16l-42.62-81.49l-42.62,81.49L163.64,258.03z"/>
<path class="st0" d="M209.47,286.47h-59.94c-5.23,0-9.49-4.26-9.49-9.49v-9.46c0-5.23,4.26-9.49,9.49-9.49h59.94
	c5.23,0,9.49,4.26,9.49,9.49v9.46C218.96,282.21,214.7,286.47,209.47,286.47 M149.53,263.92c-1.99,0-3.6,1.62-3.6,3.6v9.46
	c0,1.99,1.62,3.6,3.6,3.6h59.94c1.99,0,3.6-1.62,3.6-3.6v-9.46c0-1.99-1.62-3.6-3.6-3.6H149.53z"/>
<path class="st0" d="M179.5,198.97c-1.63,0-2.94-1.32-2.94-2.94v-77.01c0-1.63,1.32-2.94,2.94-2.94c1.63,0,2.94,1.32,2.94,2.94
	v77.01C182.45,197.65,181.13,198.97,179.5,198.97"/>
<path class="st0" d="M179.5,217.75c-6.86,0-12.44-5.58-12.44-12.44c0-6.86,5.58-12.44,12.44-12.44c6.86,0,12.44,5.58,12.44,12.44
	C191.94,212.16,186.36,217.75,179.5,217.75 M179.5,198.75c-3.61,0-6.55,2.94-6.55,6.55c0,3.61,2.94,6.55,6.55,6.55
	c3.61,0,6.55-2.94,6.55-6.55C186.05,201.69,183.11,198.75,179.5,198.75"/>
<path class="st0" d="M179.5,114.86c-6.86,0-12.44-5.58-12.44-12.44c0-6.86,5.58-12.44,12.44-12.44c6.86,0,12.44,5.58,12.44,12.44
	C191.94,109.28,186.36,114.86,179.5,114.86 M179.5,95.86c-3.61,0-6.55,2.94-6.55,6.55c0,3.61,2.94,6.55,6.55,6.55
	c3.61,0,6.55-2.94,6.55-6.55C186.05,98.8,183.11,95.86,179.5,95.86"/>
<path class="st0" d="M225.44,157.53c-6.86,0-12.44-5.58-12.44-12.44c0-6.86,5.58-12.44,12.44-12.44c6.86,0,12.44,5.58,12.44,12.44
	C237.88,151.95,232.3,157.53,225.44,157.53 M225.44,138.54c-3.61,0-6.55,2.94-6.55,6.55c0,3.61,2.94,6.55,6.55,6.55
	c3.61,0,6.55-2.94,6.55-6.55C231.99,141.48,229.05,138.54,225.44,138.54"/>
<path class="st0" d="M134.07,157.53c-6.86,0-12.44-5.58-12.44-12.44c0-6.86,5.58-12.44,12.44-12.44c6.86,0,12.44,5.58,12.44,12.44
	C146.51,151.95,140.93,157.53,134.07,157.53 M134.07,138.54c-3.61,0-6.55,2.94-6.55,6.55c0,3.61,2.94,6.55,6.55,6.55
	c3.61,0,6.55-2.94,6.55-6.55C140.62,141.48,137.68,138.54,134.07,138.54"/>
<path class="st0" d="M224.09,137.63c-1.3,0-2.5-0.87-2.85-2.19c-3.84-14.57-16.44-26.16-32.08-29.52c-1.59-0.34-2.6-1.91-2.26-3.5
	c0.34-1.59,1.91-2.6,3.5-2.26c17.79,3.82,32.13,17.08,36.54,33.77c0.42,1.57-0.52,3.18-2.1,3.6
	C224.59,137.6,224.34,137.63,224.09,137.63"/>
<path class="st0" d="M134.83,137.95c-0.24,0-0.49-0.03-0.73-0.09c-1.58-0.4-2.53-2.01-2.13-3.58c4.3-16.86,18.68-30.25,36.62-34.11
	c1.59-0.35,3.15,0.67,3.5,2.26c0.34,1.59-0.67,3.16-2.26,3.5c-15.77,3.39-28.39,15.09-32.15,29.81
	C137.34,137.06,136.14,137.95,134.83,137.95"/>
<path class="st0" d="M130.51,114.86h-17.75c-1.63,0-2.94-1.32-2.94-2.94V94.17c0-1.63,1.32-2.94,2.94-2.94h17.75
	c1.63,0,2.94,1.32,2.94,2.94v17.75C133.45,113.54,132.13,114.86,130.51,114.86 M115.71,108.97h11.86V97.11h-11.86V108.97z"/>
<path class="st0" d="M245.76,114.86h-17.75c-1.63,0-2.94-1.32-2.94-2.94V94.17c0-1.63,1.32-2.94,2.94-2.94h17.75
	c1.63,0,2.94,1.32,2.94,2.94v17.75C248.7,113.54,247.38,114.86,245.76,114.86 M230.96,108.97h11.86V97.11h-11.86V108.97z"/>
<path class="st0" d="M228.01,105.36H189c-1.63,0-2.94-1.32-2.94-2.94c0-1.63,1.32-2.94,2.94-2.94h39.01c1.63,0,2.94,1.32,2.94,2.94
	C230.96,104.04,229.64,105.36,228.01,105.36"/>
<path class="st0" d="M169.61,105.36h-39.1c-1.63,0-2.94-1.32-2.94-2.94c0-1.63,1.32-2.94,2.94-2.94h39.1c1.63,0,2.94,1.32,2.94,2.94
	C172.56,104.04,171.24,105.36,169.61,105.36"/>
<path class="st1" d="M354,180.53c0-94.83-76.1-171.88-170.57-173.4C87.4,5.58,8.84,81.43,7.18,177.46
	c-0.81,47.16,17.2,90.11,47.02,121.83c8.18,8.71,12.74,20.2,12.74,32.15v41.98c0,31.6,25.62,57.22,57.22,57.22H237
	c31.6,0,57.22-25.62,57.22-57.22v-41.97c0-12.05,4.7-23.58,12.94-32.37C336.21,268.07,354,226.38,354,180.53z"/>
<path class="st2" d="M177.5,479.38h-60.98c-6.34,0-11.48-4.4-11.48-9.82c0-5.42,5.14-9.82,11.48-9.82h139.58"/>
<path class="st1" d="M118.4,479.38h113.63c6.34,0,11.48,4.39,11.48,9.82c0,5.42-5.14,9.82-11.48,9.82h-55.27"/>
<path class="st2" d="M227.86,518.64h-102.5c-6.34,0-11.48-4.4-11.48-9.82c0-5.42,5.14-9.82,11.48-9.82h102.48"/>
</svg>
