<?xml version="1.0" encoding="utf-8"?>
<!-- Generator: Adobe Illustrator 23.0.5, SVG Export Plug-In . SVG Version: 6.00 Build 0)  -->
<svg version="1.1" id="Layer_1" xmlns="http://www.w3.org/2000/svg" xmlns:xlink="http://www.w3.org/1999/xlink" x="0px" y="0px"
	 viewBox="0 0 360 360" style="enable-background:new 0 0 360 360;" xml:space="preserve">
<style type="text/css">
	.st0{fill:#616260;}
	.st1{fill:none;stroke:#9A1918;stroke-width:12;stroke-miterlimit:10;}
</style>
<path class="st0" d="M210.84,282.4h-59.51c-5.2,0-9.42-4.23-9.42-9.42v-9.39c0-5.2,4.23-9.42,9.42-9.42h59.51
	c5.2,0,9.42,4.23,9.42,9.42v9.39C220.26,278.17,216.04,282.4,210.84,282.4 M151.33,260.01c-1.97,0-3.58,1.6-3.58,3.58v9.39
	c0,1.97,1.6,3.58,3.58,3.58h59.51c1.97,0,3.57-1.6,3.57-3.58v-9.39c0-1.97-1.6-3.58-3.57-3.58H151.33z"/>
<path class="st0" d="M173.55,201.82c0,3.59,2.92,6.51,6.51,6.51c3.59,0,6.51-2.92,6.51-6.51c0-3.59-2.92-6.51-6.51-6.51
	C176.47,195.31,173.55,198.23,173.55,201.82"/>
<path class="st0" d="M182.98,129.09v60.73c5.81,1.42,10.04,6.95,9.36,13.33c-0.6,5.68-5.19,10.29-10.86,10.93
	c-7.44,0.84-13.77-4.99-13.77-12.27c0-5.8,4.03-10.67,9.43-11.99v-60.74c0-1.89-2.53-2.51-3.41-0.84l-39.28,75.11
	c14.29,23.59,18.24,30.13,32.53,53.72h30.6c13.24-21.87,16.91-27.92,30.15-49.79c-13.78-26.35-27.56-52.7-41.34-79.04
	C185.52,126.58,182.98,127.21,182.98,129.09"/>
<path class="st0" d="M190,99.67c0,5.21-4.22,9.43-9.43,9.43c-5.21,0-9.43-4.22-9.43-9.43c0-5.21,4.22-9.43,9.43-9.43
	C185.78,90.24,190,94.46,190,99.67"/>
<path class="st0" d="M235.61,142.03c0,5.21-4.22,9.43-9.43,9.43c-5.21,0-9.43-4.22-9.43-9.43c0-5.21,4.22-9.43,9.43-9.43
	C231.39,132.61,235.61,136.83,235.61,142.03"/>
<path class="st0" d="M144.9,142.03c0,5.21-4.22,9.43-9.43,9.43c-5.21,0-9.43-4.22-9.43-9.43c0-5.21,4.22-9.43,9.43-9.43
	C140.68,132.61,144.9,136.83,144.9,142.03"/>
<path class="st0" d="M224.85,134.63c-1.3,0-2.48-0.87-2.83-2.18c-3.82-14.47-16.32-25.97-31.85-29.31
	c-1.58-0.34-2.58-1.89-2.25-3.47c0.34-1.58,1.89-2.58,3.47-2.25c17.66,3.79,31.9,16.96,36.28,33.53c0.41,1.56-0.52,3.16-2.08,3.57
	C225.34,134.6,225.09,134.63,224.85,134.63"/>
<path class="st0" d="M136.22,134.94c-0.24,0-0.48-0.03-0.73-0.09c-1.56-0.4-2.51-1.99-2.11-3.56c4.27-16.74,18.54-30.04,36.35-33.86
	c1.58-0.34,3.13,0.66,3.47,2.24c0.34,1.58-0.67,3.13-2.24,3.47c-15.66,3.37-28.19,14.98-31.92,29.59
	C138.71,134.06,137.53,134.94,136.22,134.94"/>
<rect x="114.31" y="91.48" class="st0" width="17.62" height="17.62"/>
<rect x="228.74" y="91.48" class="st0" width="17.62" height="17.62"/>
<path class="st0" d="M228.74,102.59H190c-1.61,0-2.92-1.31-2.92-2.92c0-1.61,1.31-2.92,2.92-2.92h38.73c1.61,0,2.92,1.31,2.92,2.92
	C231.66,101.28,230.35,102.59,228.74,102.59"/>
<path class="st0" d="M170.76,102.59h-38.82c-1.61,0-2.92-1.31-2.92-2.92c0-1.61,1.31-2.92,2.92-2.92h38.82
	c1.61,0,2.92,1.31,2.92,2.92C173.68,101.28,172.37,102.59,170.76,102.59"/>
<ellipse transform="matrix(0.9999 -0.0102 0.0102 0.9999 -1.8252 1.8436)" class="st1" cx="179.78" cy="179.82" rx="173.22" ry="173.22"/>
</svg>
