<?xml version="1.0" encoding="utf-8"?>
<!-- Generator: Adobe Illustrator 23.0.5, SVG Export Plug-In . SVG Version: 6.00 Build 0)  -->
<svg version="1.1" id="Layer_1" xmlns="http://www.w3.org/2000/svg" xmlns:xlink="http://www.w3.org/1999/xlink" x="0px" y="0px"
	 viewBox="0 0 360 530" style="enable-background:new 0 0 360 530;" xml:space="preserve">
<style type="text/css">
	.st0{fill:#616260;}
	.st1{fill:none;stroke:#9A1918;stroke-width:12;stroke-miterlimit:10;}
	.st2{fill:none;stroke:#9A1918;stroke-width:12;stroke-linecap:round;stroke-miterlimit:10;}
</style>
<path class="st0" d="M167.25,235.27h-39.69c-1.62,0-2.94-1.32-2.94-2.94V115.9c0-9.4,7.65-17.05,17.05-17.05h11.47
	c9.4,0,17.05,7.65,17.05,17.05v116.42C170.19,233.95,168.88,235.27,167.25,235.27 M130.5,229.39h33.81V115.9
	c0-6.16-5.01-11.17-11.17-11.17h-11.47c-6.16,0-11.17,5.01-11.17,11.17V229.39z"/>
<path class="st0" d="M147.41,274.85c-1.11,0-2.12-0.62-2.62-1.61l-19.84-39.25c-0.46-0.91-0.42-2,0.12-2.87
	c0.54-0.87,1.48-1.4,2.5-1.4h39.69c1.02,0,1.97,0.53,2.5,1.4c0.54,0.87,0.58,1.96,0.12,2.87l-19.85,39.25
	C149.53,274.22,148.52,274.85,147.41,274.85 M132.35,235.6l15.06,29.79l15.06-29.79H132.35z"/>
<path class="st0" d="M167.25,139.57h-39.69c-1.62,0-2.94-1.32-2.94-2.94c0-1.62,1.32-2.94,2.94-2.94h39.69
	c1.62,0,2.94,1.32,2.94,2.94C170.19,138.25,168.88,139.57,167.25,139.57"/>
<path class="st0" d="M229.44,270.11h-43.22c-1.62,0-2.94-1.32-2.94-2.94V104.88c0-1.62,1.32-2.94,2.94-2.94h43.22
	c1.62,0,2.94,1.32,2.94,2.94v162.29C232.38,268.79,231.06,270.11,229.44,270.11 M189.16,264.23h37.34V107.82h-37.34V264.23z"/>
<path class="st0" d="M207.83,262.66c-5.72,0-10.38-4.66-10.38-10.38c0-5.73,4.66-10.38,10.38-10.38c5.72,0,10.38,4.66,10.38,10.38
	C218.21,258.01,213.55,262.66,207.83,262.66 M207.83,247.78c-2.48,0-4.5,2.02-4.5,4.5c0,2.48,2.02,4.5,4.5,4.5
	c2.48,0,4.5-2.02,4.5-4.5C212.33,249.8,210.31,247.78,207.83,247.78"/>
<path class="st0" d="M229.44,144.42h-9.41c-1.62,0-2.94-1.32-2.94-2.94c0-1.62,1.32-2.94,2.94-2.94h9.41c1.62,0,2.94,1.32,2.94,2.94
	C232.38,143.1,231.06,144.42,229.44,144.42"/>
<path class="st0" d="M229.44,237.03h-9.41c-1.62,0-2.94-1.32-2.94-2.94c0-1.62,1.32-2.94,2.94-2.94h9.41c1.62,0,2.94,1.32,2.94,2.94
	C232.38,235.71,231.06,237.03,229.44,237.03"/>
<path class="st0" d="M229.44,213.88h-14.99c-1.62,0-2.94-1.32-2.94-2.94c0-1.62,1.32-2.94,2.94-2.94h14.99
	c1.62,0,2.94,1.32,2.94,2.94C232.38,212.56,231.06,213.88,229.44,213.88"/>
<path class="st0" d="M229.44,190.73h-9.41c-1.62,0-2.94-1.32-2.94-2.94c0-1.62,1.32-2.94,2.94-2.94h9.41c1.62,0,2.94,1.32,2.94,2.94
	C232.38,189.41,231.06,190.73,229.44,190.73"/>
<path class="st0" d="M229.44,167.57h-14.99c-1.62,0-2.94-1.32-2.94-2.94c0-1.62,1.32-2.94,2.94-2.94h14.99
	c1.62,0,2.94,1.32,2.94,2.94C232.38,166.26,231.06,167.57,229.44,167.57"/>
<path class="st1" d="M354,179.9C354,85.23,278.02,8.31,183.71,6.78C87.84,5.23,9.4,80.97,7.74,176.84
	c-0.81,47.08,17.17,89.96,46.95,121.63c8.17,8.69,12.72,20.17,12.72,32.1v41.91c0,31.55,25.58,57.12,57.12,57.12h112.65
	c31.55,0,57.12-25.58,57.12-57.12v-41.91c0-12.03,4.69-23.54,12.92-32.32C336.24,267.3,354,225.68,354,179.9z"/>
<path class="st2" d="M177.79,478.26h-60.88c-6.33,0-11.46-4.39-11.46-9.8c0-5.41,5.13-9.8,11.46-9.8h139.36"/>
<path class="st1" d="M118.79,478.26h113.45c6.33,0,11.46,4.39,11.46,9.8c0,5.41-5.13,9.8-11.46,9.8h-55.18"/>
<path class="st2" d="M228.06,517.46H125.73c-6.33,0-11.47-4.39-11.47-9.8c0-5.41,5.13-9.8,11.47-9.8h102.31"/>
</svg>
