<?xml version="1.0" encoding="utf-8"?>
<!-- Generator: Adobe Illustrator 23.0.5, SVG Export Plug-In . SVG Version: 6.00 Build 0)  -->
<svg version="1.1" id="Layer_1" xmlns="http://www.w3.org/2000/svg" xmlns:xlink="http://www.w3.org/1999/xlink" x="0px" y="0px"
	 viewBox="0 0 360 360" style="enable-background:new 0 0 360 360;" xml:space="preserve">
<style type="text/css">
	.st0{fill:#616260;}
	.st1{fill:none;stroke:#9A1918;stroke-width:12;stroke-miterlimit:10;}
</style>
<path class="st0" d="M153,98.02h-11.41c-9.36,0-16.98,7.62-16.98,16.98v115.9c0,0.46,0.11,0.91,0.31,1.31l19.76,39.4
	c0.5,0.99,1.51,1.61,2.62,1.61c1.11,0,2.12-0.63,2.62-1.61l19.76-39.4c0.2-0.41,0.31-0.86,0.31-1.31V115
	C169.98,105.64,162.36,98.02,153,98.02 M130.46,132.71h33.66v5.85h-33.66V132.71z M164.12,229.88h-33.66v-5.85h33.66V229.88z"/>
<path class="st0" d="M228.95,101.1h-43.03c-1.62,0-2.93,1.31-2.93,2.93v161.57c0,1.62,1.31,2.93,2.93,2.93h43.03
	c1.62,0,2.93-1.31,2.93-2.93V104.02C231.88,102.41,230.57,101.1,228.95,101.1 M197.1,250.77c0-5.7,4.64-10.34,10.34-10.34
	c5.7,0,10.34,4.64,10.34,10.34c0,5.7-4.64,10.33-10.34,10.33C201.74,261.11,197.1,256.47,197.1,250.77 M219.59,235.59
	c-1.62,0-2.93-1.31-2.93-2.93c0-1.62,1.31-2.93,2.93-2.93h6.44v5.85H219.59z M214.03,212.54c-1.62,0-2.93-1.31-2.93-2.93
	c0-1.62,1.31-2.93,2.93-2.93h12v5.85H214.03z M219.59,189.49c-1.62,0-2.93-1.31-2.93-2.93c0-1.62,1.31-2.93,2.93-2.93h6.44v5.85
	H219.59z M214.03,166.44c-1.62,0-2.93-1.31-2.93-2.93c0-1.62,1.31-2.93,2.93-2.93h12v5.85H214.03z M219.59,143.39
	c-1.62,0-2.93-1.31-2.93-2.93c0-1.62,1.31-2.93,2.93-2.93h6.44v5.85H219.59z"/>
<path class="st0" d="M211.92,250.77c0-2.47-2.01-4.48-4.48-4.48c-2.47,0-4.48,2.01-4.48,4.48c0,2.47,2.01,4.48,4.48,4.48
	C209.91,255.25,211.92,253.24,211.92,250.77"/>
<ellipse transform="matrix(0.9999 -0.0102 0.0102 0.9999 -1.8271 1.8519)" class="st1" cx="180.59" cy="180.01" rx="173.41" ry="173.41"/>
</svg>
