<svg width="1005" height="268" viewBox="0 0 1005 268" fill="none" xmlns="http://www.w3.org/2000/svg">
<path d="M110.618 52.0519C106.756 47.4323 101.906 43.5698 96.0508 40.4953C90.1807 37.4207 84.3569 35.4122 78.5794 34.4852C72.8019 33.5582 67.318 33.2801 62.1584 33.6663C56.9834 34.0526 52.7507 35.2886 49.4449 37.3744C46.1237 39.4601 44.409 42.102 44.239 45.362C43.6211 52.7625 46.2936 58.3091 52.2255 62.0171C58.1575 65.7251 69.2335 69.7266 85.4228 74.0526C99.2948 77.6061 110.325 83.7707 118.512 92.5463L79.6453 179.777C72.5548 180.395 65.0008 179.7 56.9834 177.691C48.966 175.683 41.7519 173.072 35.3566 169.827C28.9612 166.583 23.0138 163.23 17.5453 159.754C12.0768 156.293 7.85955 153.311 4.93993 150.839L0.321045 147.363L21.1292 124.466C31.1548 131.403 41.9837 136.718 53.6313 140.426C65.2789 144.118 75.4435 145.354 84.1715 144.118C92.884 142.882 97.781 138.881 98.8623 132.098C99.1713 130.244 99.3257 128.545 99.3257 127.015C99.3257 125.47 99.2485 124.095 99.094 122.859C98.9396 121.623 98.507 120.464 97.8119 119.383C97.1167 118.301 96.4988 117.374 95.9581 116.602C95.4175 115.829 94.4134 115.011 92.9458 114.192C91.4783 113.342 90.2734 112.647 89.3774 112.106C88.4505 111.565 86.9058 110.901 84.7431 110.128C82.5804 109.356 80.8348 108.769 79.5372 108.383C78.2241 107.996 76.0923 107.332 73.1727 106.405C62.6837 103.16 54.0638 100.24 47.2513 97.6139C33.3793 92.0673 23.6626 85.8565 18.1169 78.9967C12.5711 72.1369 9.79052 63.1449 9.79052 52.0364C9.79052 41.0978 12.7719 31.5343 18.7039 23.3612C24.6358 15.1882 32.1125 9.209 41.134 5.42375C50.1555 1.65395 59.8258 -0.0146487 70.1604 0.464301C76.4785 0.773301 82.843 1.8239 89.2538 3.60065C95.6492 5.3774 101.195 7.5095 105.906 9.96605C110.618 12.4381 114.897 14.8483 118.744 17.2585C122.59 19.6532 125.525 21.708 127.533 23.3921L130.546 25.7096L110.618 52.0519Z" fill="#D3D2D2"/>
<path d="M231.605 1.37585L276.712 1.6076L206.162 81.1906L286.892 177.892L240.395 178.587L183.037 107.564L182.574 177.66L148.558 177.429L149.021 96.9187C149.021 96.7642 148.944 96.6096 148.789 96.4551L231.605 1.37585Z" fill="#D3D2D2"/>
<path d="M310.466 1.83936H343.555L343.091 178.124L310.002 177.892L310.466 1.83936ZM415.727 1.6076H448.121L447.657 177.892L415.263 177.66C415.418 152.523 415.495 127.386 415.495 102.249C399.151 102.403 382.792 102.481 366.448 102.481L366.217 69.8503C382.715 69.8503 399.229 69.773 415.727 69.6185V1.6076Z" fill="#D3D2D2"/>
<path d="M539.247 176.981C539.247 177.29 539.324 177.521 539.479 177.676H538.784V177.908H517.28H504.799L476.359 105.262L493.707 67.78L522.378 136.486L580.663 1.62305L616.517 1.37585L539.247 176.981Z" fill="#D3D2D2"/>
<path d="M634.776 74.4853L737.488 75.1805L737.257 104.551L664.621 104.087L664.158 147.347L758.544 147.579V177.645H635.023L634.776 74.4853ZM635.008 1.37585L759.687 1.6076V33.0793L635.008 32.8475V1.37585Z" fill="#D3D2D2"/>
<path d="M795.757 177.444L795.294 1.3913H830.932L909.561 124.219L909.097 1.6076H941.955L939.869 177.676H905.174L828.383 55.2809L827.688 177.676L795.757 177.444Z" fill="#D3D2D2"/>
<path d="M970.626 1.37585H1004.64L1004.18 177.676L970.162 177.444L970.626 1.37585Z" fill="#D3D2D2"/>
<path d="M626.372 227.44H633.463V227.502C633.787 227.502 634.359 227.487 635.085 227.44C636.908 227.487 638.792 227.44 640.77 227.363C642.716 227.286 644.647 227.487 646.532 227.95C648.401 228.414 650.085 229.078 651.568 229.881C653.051 230.7 654.24 231.983 655.121 233.79C656.017 235.582 656.418 237.745 656.403 240.326C656.341 247.015 652.788 251.233 645.759 252.948C641.928 253.891 637.974 254.092 633.849 253.504L633.942 266.127H626.542L626.372 227.44ZM633.617 234.331L633.973 246.753C634.143 246.799 634.405 246.83 634.761 246.845C635.116 246.892 635.811 246.907 636.784 246.923C637.773 246.938 638.715 246.907 639.627 246.83C640.523 246.753 641.527 246.583 642.639 246.305C643.767 246.027 644.709 245.671 645.497 245.208C646.285 244.729 646.964 244.064 647.52 243.23C648.077 242.38 648.37 241.392 648.416 240.233C648.416 239.244 648.169 238.394 647.675 237.637C647.196 236.896 646.578 236.309 645.806 235.891C645.049 235.459 644.122 235.134 643.041 234.872C641.959 234.625 640.955 234.439 640.044 234.331C639.132 234.238 638.144 234.176 637.124 234.176C636.105 234.176 635.348 234.192 634.869 234.238C634.405 234.269 633.973 234.285 633.617 234.331Z" fill="#B33936"/>
<path d="M662.103 227.487H669.348C670.646 227.487 671.99 227.471 673.411 227.409C674.832 227.348 676.269 227.409 677.736 227.579C679.204 227.749 680.64 227.966 681.984 228.213C683.359 228.46 684.626 228.908 685.831 229.572C687.036 230.206 688.071 230.978 688.982 231.874C689.878 232.771 690.589 233.945 691.083 235.397C691.577 236.849 691.84 238.487 691.84 240.31C691.84 244.559 690.403 247.85 687.592 250.152C688.364 250.785 689.029 251.511 689.523 252.284C690.11 253.103 690.589 253.983 690.99 254.957C691.392 255.93 691.732 256.857 691.964 257.722C692.195 258.618 692.396 259.484 692.52 260.333C692.659 261.198 692.751 261.971 692.798 262.697C692.86 263.408 692.875 264.026 692.875 264.567C692.875 265.107 692.86 265.54 692.813 265.849V266.251L685.568 266.096C685.707 262.944 685.244 260.148 684.178 257.645C683.112 255.142 681.66 253.767 679.853 253.412C678.261 253.69 676.593 253.813 674.832 253.844C673.071 253.875 671.727 253.829 670.754 253.705C669.781 253.613 669.302 253.535 669.302 253.489L669.394 266.112H661.995L662.103 227.487ZM669.348 233.914L669.441 246.753C669.611 246.799 669.873 246.83 670.229 246.845C670.584 246.892 671.248 246.907 672.252 246.923C673.256 246.938 674.199 246.907 675.095 246.83C675.991 246.753 676.995 246.583 678.107 246.289C679.235 246.011 680.177 245.656 680.965 245.161C681.753 244.698 682.432 244.018 682.989 243.184C683.545 242.334 683.838 241.345 683.884 240.186C683.884 238.966 683.483 237.931 682.68 237.035C681.892 236.139 680.888 235.521 679.683 235.134C678.478 234.748 677.196 234.424 675.821 234.161C674.446 233.914 673.195 233.806 672.052 233.852C670.924 233.96 670.012 233.96 669.348 233.914Z" fill="#B33936"/>
<path d="M698.143 260.024L701.634 252.021C703.117 254.895 705.403 256.965 708.477 258.263C711.551 259.545 714.718 259.576 717.947 258.356C720.542 257.413 722.581 255.436 724.08 252.454C725.563 249.457 725.918 246.459 725.145 243.446C724.234 239.878 722.38 237.236 719.6 235.598C716.819 233.929 713.235 233.388 708.879 233.976L711.876 227.069C714.888 226.9 717.7 227.317 720.326 228.305C722.936 229.31 725.13 230.669 726.922 232.369C728.698 234.068 730.104 236.015 731.186 238.209C732.251 240.387 732.869 242.612 733.039 244.883C733.364 249.534 732.344 253.798 729.934 257.599C727.524 261.43 724.095 264.088 719.677 265.602C716.742 266.606 713.838 266.915 710.995 266.529C708.153 266.143 705.619 265.355 703.426 264.196C701.171 263.037 699.409 261.647 698.143 260.024Z" fill="#B33936"/>
<path d="M739.033 227.487H746.278C747.993 227.44 749.661 227.502 751.268 227.626C752.874 227.749 754.558 227.996 756.288 228.367C758.018 228.738 759.625 229.232 761.077 229.835C762.529 230.453 763.919 231.241 765.248 232.276C766.576 233.311 767.72 234.455 768.646 235.799C769.573 237.143 770.315 238.734 770.825 240.604C771.334 242.473 771.597 244.559 771.566 246.861C771.535 249.256 771.242 251.419 770.67 253.319C770.114 255.235 769.372 256.857 768.492 258.186C767.596 259.514 766.484 260.704 765.124 261.677C763.765 262.682 762.375 263.454 760.953 264.041C759.517 264.628 757.879 265.092 756.072 265.432C754.249 265.787 752.503 266.019 750.835 266.112C749.151 266.204 747.313 266.266 745.32 266.266L739.187 266.173L739.033 227.487ZM746.278 234.223L746.216 259.468C750.681 259.375 754.218 258.866 756.829 257.985C759.455 257.089 761.324 255.806 762.452 254.107C763.595 252.407 764.213 250.152 764.306 247.324C764.475 242.828 763.178 239.568 760.444 237.56C757.694 235.536 752.967 234.439 746.278 234.223Z" fill="#B33936"/>
<path d="M785.469 227.487C785.438 237.776 785.407 245.64 785.407 251.11C785.407 252.562 785.716 253.891 786.349 255.096C786.967 256.301 787.786 257.243 788.744 257.954C789.733 258.665 790.752 259.205 791.833 259.576C792.915 259.947 793.965 260.102 794.985 260.04C797.148 259.962 799.063 259.097 800.762 257.429C802.446 255.745 803.357 253.659 803.45 251.125C803.651 245.347 803.682 237.467 803.543 227.502L811.251 227.456C811.282 237.39 811.267 245.81 811.189 252.763C811.143 254.617 810.788 256.332 810.062 257.908C809.351 259.468 808.44 260.812 807.312 261.863C806.184 262.929 804.918 263.81 803.45 264.551C801.998 265.293 800.546 265.803 799.109 266.158C797.657 266.513 796.236 266.668 794.861 266.668C792.729 266.621 790.706 266.343 788.759 265.772C786.828 265.215 785.036 264.381 783.399 263.3C781.777 262.203 780.479 260.75 779.537 258.927C778.564 257.104 778.085 255.065 778.085 252.763L777.884 227.425L785.469 227.487Z" fill="#B33936"/>
<path d="M857.734 234.794L853.933 242.705C852.543 239.8 850.334 237.668 847.322 236.262C844.294 234.887 841.143 234.733 837.868 235.86C835.242 236.71 833.11 238.611 831.534 241.546C829.943 244.482 829.48 247.479 830.159 250.507C830.978 254.122 832.755 256.811 835.473 258.541C838.223 260.287 841.761 260.936 846.117 260.488L842.873 267.332C839.891 267.379 837.111 266.853 834.5 265.787C831.889 264.721 829.742 263.3 828.043 261.538C826.344 259.762 824.984 257.769 823.98 255.544C822.976 253.334 822.435 251.094 822.343 248.839C822.173 244.188 823.347 239.97 825.88 236.216C828.414 232.462 831.905 229.912 836.369 228.568C839.351 227.657 842.239 227.425 845.066 227.904C847.893 228.383 850.38 229.232 852.559 230.453C854.768 231.689 856.482 233.126 857.734 234.794Z" fill="#B33936"/>
<path d="M875.916 266.158L875.869 234.176L863.465 234.068V227.44L895.04 227.487L894.978 234.13L883.114 234.176L882.852 266.158H875.916Z" fill="#B33936"/>
<path d="M901.373 227.44H908.819L908.711 266.065L901.25 266.003L901.373 227.44Z" fill="#B33936"/>
<path d="M915.153 260.024L918.644 252.021C920.127 254.895 922.413 256.965 925.487 258.263C928.562 259.545 931.728 259.576 934.972 258.356C937.568 257.413 939.607 255.436 941.105 252.454C942.588 249.457 942.943 246.459 942.171 243.446C941.26 239.878 939.406 237.236 936.625 235.598C933.845 233.929 930.261 233.388 925.905 233.976L928.901 227.069C931.914 226.9 934.725 227.317 937.351 228.305C939.962 229.31 942.156 230.669 943.948 232.369C945.724 234.068 947.13 236.015 948.196 238.209C949.262 240.387 949.879 242.612 950.049 244.883C950.374 249.534 949.354 253.798 946.944 257.599C944.535 261.43 941.105 264.088 936.687 265.602C933.752 266.606 930.863 266.915 928.036 266.529C925.194 266.143 922.661 265.355 920.467 264.196C918.181 263.037 916.42 261.647 915.153 260.024Z" fill="#B33936"/>
<path d="M955.95 266.003L955.842 227.44H963.659L980.899 254.354L980.775 227.487H987.989L987.526 266.065H979.925L963.087 239.259L962.933 266.065L955.95 266.003Z" fill="#B33936"/>
</svg>
