<?xml version="1.0" encoding="utf-8"?>
<!-- Generator: Adobe Illustrator 23.0.5, SVG Export Plug-In . SVG Version: 6.00 Build 0)  -->
<svg version="1.1" id="Layer_1" xmlns="http://www.w3.org/2000/svg" xmlns:xlink="http://www.w3.org/1999/xlink" x="0px" y="0px"
	 viewBox="0 0 360 360" style="enable-background:new 0 0 360 360;" xml:space="preserve">
<style type="text/css">
	.st0{fill:#616260;}
	.st1{fill:none;stroke:#9A1918;stroke-width:12;stroke-miterlimit:10;}
</style>
<path class="st0" d="M175.12,147.06c-21.45,0-38.91,17.45-38.91,38.91c0,21.46,17.45,38.91,38.91,38.91
	c21.45,0,38.9-17.45,38.9-38.91C214.03,164.52,196.57,147.06,175.12,147.06 M175.12,165.27c-11.41,0-20.7,9.29-20.7,20.7
	c0,0.79,0.05,1.59,0.13,2.37c0.18,1.61-0.98,3.07-2.59,3.25c-0.11,0.01-0.22,0.02-0.34,0.02c-1.47,0-2.75-1.11-2.92-2.61
	c-0.11-1-0.17-2.02-0.17-3.03c0-14.66,11.92-26.58,26.58-26.58c1.62,0,2.94,1.32,2.94,2.94
	C178.06,163.95,176.75,165.27,175.12,165.27"/>
<path class="st0" d="M162.43,123.35h27.05c1.38,0,2.5-1.12,2.5-2.5v-5.59c0-1.38-1.12-2.5-2.5-2.5h-27.05c-1.38,0-2.5,1.12-2.5,2.5
	v5.59C159.93,122.22,161.05,123.35,162.43,123.35"/>
<path class="st0" d="M258.42,126.29h-1.36v-8.71c0-3.15-2.56-5.72-5.71-5.72h-0.18c-3.15,0-5.72,2.56-5.72,5.72v8.71h-27.01v-1.91
	c0-15.18-12.31-27.49-27.49-27.49h-30.87c-15.18,0-27.49,12.31-27.49,27.49v1.91H91.14c-9.26,0-16.76,7.5-16.76,16.76v85.86
	c0,9.26,7.5,16.76,16.76,16.76h167.29c9.25,0,16.76-7.5,16.76-16.76v-85.86C275.18,133.79,267.67,126.29,258.42,126.29
	 M154.05,115.26c0-4.62,3.76-8.38,8.38-8.38h27.05c4.62,0,8.38,3.76,8.38,8.38v5.59c0,4.62-3.76,8.38-8.38,8.38h-27.05
	c-4.62,0-8.38-3.76-8.38-8.38V115.26z M110.54,149.09c0,3.15-2.56,5.71-5.71,5.71h-5.92c-3.15,0-5.71-2.56-5.71-5.71v-0.18
	c0-3.15,2.56-5.71,5.71-5.71h5.92c3.15,0,5.71,2.56,5.71,5.71V149.09z M175.12,230.76c-24.69,0-44.79-20.09-44.79-44.79
	c0-24.7,20.09-44.79,44.79-44.79c24.69,0,44.78,20.09,44.78,44.79C219.91,210.67,199.82,230.76,175.12,230.76"/>
<ellipse class="st1" cx="179.82" cy="179.8" rx="174.18" ry="174.2"/>
</svg>
