<?xml version="1.0" encoding="utf-8"?>
<!-- Generator: Adobe Illustrator 23.0.5, SVG Export Plug-In . SVG Version: 6.00 Build 0)  -->
<svg version="1.1" id="Layer_1" xmlns="http://www.w3.org/2000/svg" xmlns:xlink="http://www.w3.org/1999/xlink" x="0px" y="0px"
	 viewBox="0 0 800 500" style="enable-background:new 0 0 800 500;" xml:space="preserve">
<style type="text/css">
	.st0{fill:#B33936;}
	.st1{fill:#666362;}
</style>
<polygon class="st0" points="391.14,216.54 248.06,218.36 391.14,218.36 "/>
<path class="st1" d="M119.44,329.2c-2.83-3.39-6.39-6.21-10.68-8.48c-4.3-2.26-8.56-3.73-12.8-4.41c-4.24-0.68-8.25-0.87-12.04-0.59
	c-3.79,0.28-6.9,1.19-9.33,2.71c-2.43,1.53-3.71,3.48-3.82,5.85c-0.45,5.43,1.5,9.5,5.85,12.21c4.35,2.71,12.46,5.66,24.33,8.82
	c10.17,2.6,18.26,7.12,24.25,13.56L96.72,422.8c-5.2,0.45-10.74-0.06-16.62-1.53c-5.88-1.47-11.17-3.39-15.86-5.76
	c-4.69-2.38-9.05-4.83-13.06-7.38c-4.01-2.54-7.1-4.72-9.24-6.53l-3.39-2.55l15.26-16.79c7.35,5.09,15.29,8.99,23.82,11.7
	c8.54,2.71,16,3.62,22.39,2.71c6.39-0.9,9.98-3.84,10.77-8.82c0.23-1.36,0.34-2.6,0.34-3.73c0-1.13-0.06-2.15-0.17-3.05
	c-0.11-0.9-0.42-1.75-0.93-2.54c-0.51-0.79-0.96-1.47-1.36-2.04c-0.4-0.56-1.13-1.16-2.2-1.78c-1.08-0.62-1.95-1.13-2.63-1.53
	c-0.68-0.39-1.81-0.87-3.39-1.44c-1.58-0.56-2.86-0.99-3.82-1.27c-0.96-0.28-2.52-0.76-4.66-1.44c-7.69-2.38-14.02-4.52-18.99-6.45
	c-10.17-4.07-17.3-8.62-21.37-13.65c-4.07-5.03-6.11-11.62-6.11-19.76c0-8.03,2.18-15.03,6.53-21.03
	c4.35-5.99,9.84-10.37,16.45-13.14c6.61-2.77,13.71-3.99,21.28-3.65c4.63,0.23,9.3,0.99,13.99,2.29c4.69,1.3,8.76,2.86,12.21,4.66
	c3.45,1.81,6.59,3.59,9.41,5.34c2.82,1.75,4.97,3.25,6.44,4.49l2.21,1.7L119.44,329.2z"/>
<path class="st1" d="M208.13,292.06l33.07,0.17l-51.72,58.34l59.18,70.88l-34.09,0.51l-42.05-52.06l-0.34,51.38l-24.93-0.17
	l0.34-59.01c0-0.11-0.06-0.23-0.17-0.34L208.13,292.06z"/>
<path class="st1" d="M265.96,292.4h24.25l-0.34,129.22l-24.25-0.17L265.96,292.4z M343.11,292.23h23.74l-0.34,129.22l-23.74-0.17
	c0.11-18.43,0.17-36.85,0.17-55.28c-11.98,0.11-23.97,0.17-35.95,0.17l-0.17-23.91c12.1,0,24.19-0.06,36.29-0.17V292.23z"/>
<path class="st1" d="M433.67,420.77c0,0.23,0.05,0.4,0.17,0.51h-0.51v0.17h-15.77h-9.16l-20.86-53.25l12.72-27.47l21.03,50.36
	l42.73-98.86l26.28-0.17L433.67,420.77z"/>
<path class="st1" d="M503.7,345.65l75.29,0.51l-0.17,21.54l-53.25-0.34l-0.34,31.71l69.19,0.17v22.04h-90.56L503.7,345.65z
	 M503.87,292.06l91.4,0.17v23.06l-91.4-0.17V292.06z"/>
<polygon class="st1" points="621.73,421.11 621.39,292.06 647.5,292.06 705.16,382.1 704.82,292.23 728.9,292.23 727.37,421.28 
	701.94,421.28 645.64,331.57 645.13,421.28 "/>
<polygon class="st1" points="749.93,292.06 774.85,292.06 774.52,421.28 749.59,421.11 "/>
<path class="st0" d="M497.54,457.76h5.2v0.04c0.25,0,0.64-0.01,1.19-0.04c1.34,0.03,2.73,0,4.16-0.06c1.44-0.06,2.84,0.08,4.22,0.43
	c1.38,0.35,2.61,0.82,3.7,1.41c1.09,0.59,1.96,1.55,2.6,2.86c0.64,1.31,0.95,2.91,0.93,4.79c-0.05,4.9-2.65,7.99-7.8,9.25
	c-2.8,0.69-5.71,0.83-8.73,0.41l0.08,9.25h-5.43L497.54,457.76z M502.85,462.81l0.26,9.1c0.12,0.03,0.31,0.05,0.57,0.07
	c0.26,0.03,0.76,0.04,1.49,0.06c0.73,0.01,1.42-0.01,2.08-0.08c0.66-0.06,1.39-0.19,2.21-0.39c0.82-0.2,1.52-0.47,2.1-0.82
	c0.58-0.35,1.08-0.83,1.49-1.45c0.41-0.62,0.62-1.35,0.65-2.19c0-0.72-0.18-1.35-0.54-1.89c-0.36-0.55-0.82-0.97-1.38-1.28
	c-0.56-0.31-1.23-0.56-2.02-0.74c-0.79-0.18-1.52-0.31-2.19-0.39c-0.67-0.07-1.38-0.11-2.14-0.11c-0.76,0-1.31,0.01-1.65,0.04
	C503.43,462.76,503.12,462.78,502.85,462.81"/>
<path class="st0" d="M523.73,457.79h5.31c0.94,0,1.93-0.02,2.97-0.06c1.04-0.04,2.1,0,3.18,0.13c1.08,0.13,2.12,0.28,3.12,0.47
	c1,0.19,1.94,0.51,2.82,0.99c0.88,0.47,1.65,1.03,2.3,1.69c0.66,0.66,1.17,1.52,1.54,2.58c0.37,1.06,0.56,2.27,0.56,3.6
	c0,3.12-1.04,5.52-3.12,7.21c0.57,0.47,1.04,0.99,1.41,1.56c0.42,0.59,0.78,1.25,1.08,1.95c0.3,0.71,0.53,1.38,0.71,2.03
	c0.17,0.64,0.31,1.28,0.41,1.91c0.1,0.63,0.17,1.21,0.21,1.73c0.04,0.52,0.06,0.98,0.06,1.38c0,0.4-0.01,0.71-0.04,0.93v0.3
	l-5.31-0.11c0.1-2.3-0.24-4.37-1.02-6.19c-0.78-1.82-1.84-2.85-3.18-3.1c-1.16,0.2-2.39,0.3-3.68,0.31
	c-1.29,0.01-2.29-0.02-2.99-0.09c-0.71-0.07-1.06-0.13-1.06-0.15l0.07,9.25h-5.42L523.73,457.79z M529.04,462.51l0.07,9.4
	c0.13,0.02,0.32,0.05,0.58,0.07c0.26,0.03,0.75,0.04,1.48,0.06c0.73,0.01,1.43-0.01,2.08-0.08c0.66-0.06,1.39-0.19,2.21-0.39
	c0.82-0.2,1.52-0.47,2.1-0.82c0.58-0.35,1.08-0.83,1.49-1.45c0.41-0.62,0.63-1.35,0.65-2.19c0-0.89-0.29-1.66-0.87-2.3
	c-0.58-0.64-1.31-1.11-2.19-1.39c-0.88-0.29-1.82-0.52-2.82-0.71c-1-0.18-1.93-0.26-2.77-0.22
	C530.21,462.53,529.54,462.54,529.04,462.51"/>
<path class="st0" d="M550.15,481.65l2.57-5.87c1.09,2.11,2.76,3.63,5.02,4.57c2.25,0.94,4.57,0.97,6.95,0.07
	c1.91-0.69,3.41-2.14,4.5-4.33c1.09-2.19,1.35-4.39,0.78-6.6c-0.67-2.62-2.02-4.55-4.07-5.76c-2.04-1.21-4.66-1.61-7.86-1.19
	l2.19-5.05c2.2-0.12,4.27,0.18,6.19,0.91c1.92,0.73,3.53,1.72,4.83,2.97c1.3,1.25,2.34,2.67,3.12,4.27c0.78,1.6,1.23,3.23,1.36,4.89
	c0.25,3.42-0.52,6.53-2.29,9.33c-1.77,2.8-4.28,4.76-7.52,5.87c-2.16,0.74-4.27,0.97-6.35,0.69c-2.08-0.29-3.93-0.86-5.55-1.71
	C552.37,483.86,551.09,482.84,550.15,481.65"/>
<path class="st0" d="M580.13,457.79h5.31c1.26-0.02,2.48,0.01,3.66,0.09c1.18,0.09,2.4,0.26,3.68,0.54
	c1.27,0.27,2.45,0.63,3.51,1.08c1.06,0.45,2.09,1.04,3.07,1.78c0.98,0.74,1.81,1.6,2.49,2.58c0.68,0.98,1.21,2.15,1.6,3.53
	c0.38,1.38,0.56,2.91,0.54,4.59c-0.02,1.76-0.24,3.34-0.65,4.74c-0.41,1.4-0.94,2.59-1.6,3.57c-0.66,0.98-1.48,1.83-2.47,2.56
	c-0.99,0.73-2.01,1.31-3.07,1.73c-1.05,0.42-2.25,0.76-3.59,1.02c-1.34,0.26-2.62,0.43-3.84,0.5c-1.23,0.08-2.57,0.11-4.03,0.11
	l-4.5-0.07L580.13,457.79z M585.45,462.74l-0.04,18.5c3.27-0.07,5.87-0.44,7.79-1.1c1.92-0.66,3.29-1.6,4.12-2.84
	c0.83-1.24,1.28-2.9,1.36-4.98c0.12-3.29-0.82-5.68-2.84-7.15C593.81,463.7,590.35,462.89,585.45,462.74"/>
<path class="st0" d="M614.17,457.79c-0.02,7.53-0.04,13.3-0.04,17.31c0,1.06,0.23,2.04,0.69,2.92c0.46,0.88,1.05,1.58,1.76,2.1
	c0.72,0.52,1.47,0.92,2.27,1.19c0.79,0.27,1.56,0.38,2.3,0.33c1.58-0.05,3-0.69,4.24-1.91c1.24-1.23,1.9-2.77,1.97-4.63
	c0.15-4.24,0.17-10.01,0.08-17.31l5.65-0.04c0.02,7.28,0.01,13.46-0.04,18.54c-0.03,1.36-0.3,2.62-0.82,3.77
	c-0.52,1.15-1.19,2.12-2,2.9c-0.82,0.78-1.76,1.44-2.83,1.97c-1.06,0.53-2.13,0.92-3.19,1.17c-1.06,0.25-2.11,0.37-3.12,0.37
	c-1.56-0.03-3.05-0.24-4.48-0.65c-1.42-0.41-2.73-1.01-3.92-1.82c-1.19-0.8-2.14-1.87-2.84-3.2c-0.71-1.32-1.06-2.83-1.06-4.51
	l-0.15-18.58L614.17,457.79z"/>
<path class="st0" d="M667.15,463.15l-2.79,5.79c-1.02-2.13-2.63-3.7-4.85-4.72c-2.22-1.01-4.53-1.11-6.93-0.3
	c-1.93,0.62-3.48,2.01-4.65,4.16c-1.17,2.16-1.5,4.35-1,6.58c0.59,2.65,1.9,4.61,3.9,5.89c2.01,1.28,4.61,1.75,7.8,1.43l-2.38,5.02
	c-2.18,0.02-4.22-0.35-6.13-1.13c-1.91-0.78-3.49-1.82-4.74-3.12c-1.25-1.3-2.24-2.76-2.97-4.39c-0.73-1.62-1.13-3.26-1.21-4.92
	c-0.13-3.42,0.74-6.5,2.6-9.25c1.86-2.75,4.42-4.62,7.69-5.61c2.18-0.67,4.3-0.83,6.37-0.49c2.07,0.35,3.9,0.97,5.5,1.88
	C664.98,460.87,666.23,461.93,667.15,463.15"/>
<polygon class="st0" points="680.49,486.14 680.45,462.7 671.35,462.62 671.35,457.76 694.5,457.79 694.46,462.66 685.76,462.7 
	685.58,486.14 "/>
<polygon class="st0" points="699.14,457.76 704.6,457.76 704.53,486.07 699.07,486.03 "/>
<path class="st0" d="M709.25,481.65l2.56-5.87c1.09,2.11,2.76,3.63,5.02,4.57c2.25,0.94,4.57,0.97,6.95,0.07
	c1.91-0.69,3.41-2.14,4.49-4.33c1.09-2.19,1.35-4.39,0.78-6.6c-0.67-2.62-2.03-4.55-4.07-5.76c-2.04-1.21-4.66-1.61-7.86-1.19
	l2.19-5.05c2.21-0.12,4.27,0.18,6.19,0.91c1.92,0.73,3.53,1.72,4.83,2.97c1.3,1.25,2.34,2.67,3.12,4.27
	c0.78,1.6,1.23,3.23,1.36,4.89c0.25,3.42-0.51,6.53-2.28,9.33c-1.77,2.8-4.28,4.76-7.53,5.87c-2.15,0.74-4.27,0.97-6.35,0.69
	c-2.08-0.29-3.93-0.86-5.56-1.71C711.47,483.86,710.19,482.84,709.25,481.65"/>
<polygon class="st0" points="739.16,486.03 739.08,457.76 744.81,457.76 757.44,477.49 757.36,457.79 762.64,457.79 762.31,486.07 
	756.73,486.07 744.4,466.41 744.29,486.07 "/>
<polygon class="st1" points="469.23,483.78 38.55,480.15 38.55,483.78 "/>
<polygon class="st1" points="774.85,250.8 38.55,250.8 38.55,245.11 "/>
<polygon class="st1" points="38.55,226.48 316.51,9.77 774.85,250.8 316.51,40.17 "/>
<path class="st0" d="M296.67,143.44c0,6.41,2.8,12.58,7.56,16.94c0.08,0.08,0.16,0.16,0.25,0.25c3.62,3.62,3.21,11.35,3.21,11.43
	c0,0.41,0.17,0.82,0.41,1.07c0.25,0.25,0.58,0.41,0.99,0.41h20.97c0.33,0,0.74-0.16,0.99-0.41c0.33-0.33,0.41-0.66,0.41-1.07
	c-0.08-0.08-0.41-7.81,3.21-11.43c4.85-4.28,7.73-10.61,7.73-17.19c0-12.58-10.28-22.86-22.86-22.86
	C306.95,120.58,296.67,130.86,296.67,143.44 M299.54,143.36c0-11.1,8.96-20.07,20.07-20.07c11.1,0,20.07,8.96,20.07,20.07
	c0,5.84-2.55,11.35-6.91,15.13c-3.45,3.54-4.03,9.46-4.11,12.17h-18.18c-0.08-2.71-0.66-8.39-3.86-11.84c0-0.08-0.17-0.25-0.25-0.33
	C302.01,154.71,299.54,149.2,299.54,143.36"/>
<path class="st0" d="M301.85,144.18c0,0.74,0.66,1.4,1.4,1.4c0.74,0,1.4-0.66,1.4-1.4c0-8.22,6.66-14.97,14.97-14.97
	c0.74,0,1.4-0.66,1.4-1.4c0-0.74-0.66-1.4-1.4-1.4C309.74,126.42,301.76,134.39,301.85,144.18"/>
<path class="st0" d="M307.03,178.55c0,1.89,1.56,3.37,3.54,3.45h18.18c1.89,0,3.45-1.56,3.45-3.45c0-1.89-1.56-3.45-3.45-3.45
	h-18.26C308.59,175.1,307.03,176.66,307.03,178.55 M309.91,178.47c0-0.41,0.33-0.66,0.66-0.66h18.18c0.41,0,0.66,0.25,0.66,0.66
	c0,0.41-0.33,0.66-0.66,0.66h-18.26C310.15,179.13,309.91,178.88,309.91,178.47"/>
<path class="st0" d="M309.74,186.86c0,1.89,1.56,3.45,3.45,3.45h12.83c1.89,0,3.45-1.56,3.45-3.45c0-1.89-1.56-3.45-3.45-3.45H313.2
	C311.3,183.41,309.74,184.89,309.74,186.86 M312.54,186.78c0-0.41,0.33-0.66,0.66-0.66h12.83c0.41,0,0.66,0.25,0.66,0.66
	c0,0.41-0.33,0.66-0.66,0.66H313.2C312.87,187.44,312.54,187.19,312.54,186.78"/>
<path class="st0" d="M321.01,112.35v-9.54c0-0.74-0.66-1.4-1.4-1.4c-0.74,0-1.4,0.66-1.4,1.4v9.54c0,0.74,0.57,1.4,1.4,1.4
	C320.35,113.75,321.01,113.09,321.01,112.35"/>
<path class="st0" d="M296.01,110.38l5.26,7.89c0.25,0.41,0.66,0.66,1.15,0.66c0.25,0,0.49-0.08,0.74-0.25
	c0.66-0.41,0.82-1.32,0.33-1.97l-5.26-7.89c-0.41-0.58-1.23-0.82-1.89-0.33C295.68,108.9,295.51,109.8,296.01,110.38"/>
<path class="st0" d="M337.54,117.94l5.1-7.98c0.41-0.66,0.25-1.56-0.41-1.97c-0.66-0.41-1.56-0.25-1.97,0.41l-5.1,7.98
	c-0.41,0.66-0.25,1.56,0.41,1.97c0.25,0.16,0.49,0.25,0.74,0.25C336.8,118.6,337.21,118.44,337.54,117.94"/>
<path class="st0" d="M345.68,129.21c0.25,0.49,0.74,0.74,1.23,0.74c0.25,0,0.41-0.08,0.66-0.16l8.31-4.52
	c0.74-0.33,0.99-1.23,0.58-1.89c-0.33-0.66-1.23-0.9-1.89-0.58l-8.31,4.52C345.6,127.65,345.35,128.55,345.68,129.21"/>
<path class="st0" d="M283.26,125.26l8.39,4.52c0.16,0.08,0.41,0.16,0.66,0.16c0.49,0,0.99-0.25,1.23-0.74
	c0.33-0.66,0.08-1.56-0.58-1.89l-8.39-4.52c-0.66-0.33-1.56-0.08-1.89,0.58C282.36,124.03,282.6,124.93,283.26,125.26"/>
</svg>
