<?xml version="1.0" encoding="utf-8"?>
<!-- Generator: Adobe Illustrator 23.0.5, SVG Export Plug-In . SVG Version: 6.00 Build 0)  -->
<svg version="1.1" id="Layer_1" xmlns="http://www.w3.org/2000/svg" xmlns:xlink="http://www.w3.org/1999/xlink" x="0px" y="0px"
	 viewBox="0 0 670 200" style="enable-background:new 0 0 670 200;" xml:space="preserve">
<style type="text/css">
	.st0{fill:#D3D2D2;}
	.st1{fill:#B33936;}
</style>
<path class="st0" d="M83.26,47.93c-2.5-2.99-5.64-5.49-9.43-7.48c-3.8-1.99-7.57-3.29-11.31-3.89s-7.29-0.78-10.63-0.53
	c-3.35,0.25-6.09,1.05-8.23,2.4c-2.15,1.35-3.26,3.06-3.37,5.17c-0.4,4.79,1.33,8.38,5.17,10.78c3.84,2.4,11.01,4.99,21.49,7.79
	c8.98,2.3,16.12,6.29,21.42,11.97L63.21,130.6c-4.59,0.4-9.48-0.05-14.67-1.35c-5.19-1.3-9.86-2.99-14-5.09
	c-4.14-2.1-7.99-4.27-11.53-6.52c-3.54-2.24-6.27-4.17-8.16-5.77l-2.99-2.25L25.33,94.8c6.49,4.49,13.5,7.93,21.04,10.33
	c7.54,2.39,14.12,3.19,19.77,2.39c5.64-0.8,8.81-3.39,9.51-7.78c0.2-1.2,0.3-2.3,0.3-3.29c0-1-0.05-1.89-0.15-2.69
	c-0.1-0.8-0.38-1.55-0.83-2.25c-0.45-0.7-0.85-1.3-1.2-1.8c-0.35-0.5-1-1.03-1.95-1.56c-0.95-0.55-1.73-1-2.31-1.35
	c-0.6-0.35-1.6-0.78-3-1.28c-1.4-0.5-2.53-0.88-3.37-1.13c-0.85-0.25-2.23-0.68-4.12-1.28c-6.79-2.1-12.37-3.99-16.78-5.69
	c-8.98-3.59-15.27-7.61-18.86-12.05s-5.39-10.26-5.39-17.45c0-7.08,1.93-13.27,5.77-18.56s8.68-9.16,14.52-11.61
	c5.84-2.44,12.1-3.52,18.79-3.21c4.09,0.2,8.21,0.88,12.36,2.03c4.14,1.15,7.73,2.53,10.78,4.12c3.05,1.6,5.82,3.16,8.31,4.72
	c2.49,1.55,4.39,2.88,5.69,3.97l1.95,1.5L83.26,47.93z"/>
<path class="st0" d="M161.58,15.13l29.2,0.15l-45.67,51.51l52.26,62.59l-30.1,0.45l-37.13-45.97l-0.3,45.37l-22.02-0.15l0.3-52.11
	c0-0.1-0.05-0.2-0.15-0.3L161.58,15.13z"/>
<path class="st0" d="M212.63,15.43h21.42l-0.3,114.1l-21.42-0.15L212.63,15.43z M280.77,15.28h20.97l-0.3,114.1l-20.97-0.15
	c0.1-16.27,0.15-32.54,0.15-48.81c-10.58,0.1-21.17,0.15-31.75,0.15l-0.15-21.12c10.68,0,21.37-0.05,32.05-0.15V15.28z"/>
<path class="st0" d="M360.73,128.79c0,0.2,0.05,0.35,0.15,0.45h-0.45v0.15h-13.92h-8.08l-18.41-47.02l11.23-24.26l18.56,44.47
	l37.73-87.29l23.21-0.16L360.73,128.79z"/>
<path class="st0" d="M422.57,62.45l66.49,0.45l-0.15,19.01l-47.02-0.3l-0.3,28l61.1,0.15v19.46h-79.96L422.57,62.45z M422.72,15.13
	l80.71,0.15v20.37l-80.71-0.15V15.13z"/>
<polygon class="st0" points="526.78,129.09 526.48,15.14 549.55,15.14 600.45,94.64 600.15,15.28 621.42,15.28 620.07,129.24 
	597.61,129.24 547.9,50.02 547.45,129.24 "/>
<polygon class="st0" points="639.98,15.13 662,15.13 661.7,129.24 639.68,129.09 "/>
<path class="st1" d="M417.13,161.45h4.59v0.04c0.21,0,0.58-0.01,1.05-0.04c1.18,0.03,2.4,0,3.68-0.05c1.26-0.05,2.51,0.08,3.73,0.38
	c1.21,0.3,2.3,0.73,3.26,1.25c0.96,0.53,1.73,1.36,2.3,2.53c0.58,1.16,0.84,2.56,0.83,4.23c-0.04,4.33-2.34,7.06-6.89,8.17
	c-2.48,0.61-5.04,0.74-7.71,0.36l0.06,8.17h-4.79L417.13,161.45z M421.82,165.91l0.23,8.04c0.11,0.03,0.28,0.05,0.51,0.06
	c0.23,0.03,0.68,0.04,1.31,0.05c0.64,0.01,1.25-0.01,1.84-0.06c0.58-0.05,1.23-0.16,1.95-0.34c0.73-0.18,1.34-0.41,1.85-0.71
	c0.51-0.31,0.95-0.74,1.31-1.28c0.36-0.55,0.55-1.19,0.58-1.94c0-0.64-0.16-1.19-0.48-1.68c-0.31-0.48-0.71-0.86-1.21-1.13
	c-0.49-0.28-1.09-0.49-1.79-0.66c-0.7-0.16-1.35-0.28-1.94-0.35c-0.59-0.06-1.23-0.1-1.89-0.1c-0.66,0-1.15,0.01-1.46,0.04
	C422.33,165.87,422.05,165.88,421.82,165.91"/>
<path class="st1" d="M440.26,161.48h4.69c0.84,0,1.71-0.01,2.63-0.05s1.85,0,2.8,0.11c0.95,0.11,1.88,0.25,2.75,0.41
	c0.89,0.16,1.71,0.45,2.49,0.88c0.78,0.41,1.45,0.91,2.04,1.49c0.58,0.58,1.04,1.34,1.36,2.28s0.49,2,0.49,3.18
	c0,2.75-0.93,4.88-2.75,6.37c0.5,0.41,0.93,0.88,1.25,1.38c0.38,0.53,0.69,1.1,0.95,1.73c0.26,0.63,0.48,1.23,0.63,1.79
	c0.15,0.58,0.28,1.14,0.36,1.69c0.09,0.56,0.15,1.06,0.18,1.53c0.04,0.46,0.05,0.86,0.05,1.21s-0.01,0.63-0.04,0.83v0.26l-4.69-0.1
	c0.09-2.04-0.21-3.85-0.9-5.47s-1.63-2.51-2.8-2.74c-1.03,0.18-2.11,0.26-3.25,0.28s-2.01-0.01-2.64-0.09
	c-0.63-0.06-0.94-0.11-0.94-0.14l0.06,8.17h-4.79L440.26,161.48z M444.95,165.64l0.06,8.31c0.11,0.03,0.28,0.05,0.51,0.06
	c0.23,0.03,0.66,0.04,1.31,0.05c0.65,0.01,1.26-0.01,1.84-0.06c0.58-0.05,1.23-0.16,1.95-0.35c0.73-0.18,1.34-0.41,1.85-0.73
	c0.51-0.3,0.95-0.74,1.31-1.28c0.36-0.55,0.55-1.19,0.58-1.94c0-0.79-0.26-1.46-0.78-2.04c-0.51-0.58-1.16-0.98-1.94-1.23
	c-0.78-0.25-1.61-0.46-2.5-0.63c-0.89-0.16-1.7-0.23-2.44-0.2C445.97,165.67,445.38,165.67,444.95,165.64"/>
<path class="st1" d="M463.59,182.54l2.26-5.18c0.96,1.86,2.44,3.2,4.43,4.04c1.99,0.83,4.04,0.85,6.13,0.06
	c1.68-0.61,3-1.89,3.97-3.82c0.96-1.94,1.19-3.88,0.69-5.83c-0.59-2.31-1.79-4.02-3.59-5.08c-1.8-1.08-4.12-1.43-6.94-1.05
	l1.94-4.47c1.95-0.11,3.77,0.16,5.47,0.8c1.69,0.65,3.11,1.53,4.27,2.63c1.15,1.1,2.06,2.36,2.76,3.78c0.69,1.41,1.09,2.85,1.2,4.32
	c0.21,3.01-0.45,5.77-2.01,8.23c-1.56,2.48-3.78,4.2-6.64,5.18c-1.9,0.65-3.78,0.85-5.62,0.6c-1.84-0.25-3.48-0.76-4.9-1.51
	C465.55,184.49,464.41,183.59,463.59,182.54"/>
<path class="st1" d="M490.06,161.48h4.69c1.11-0.03,2.19,0.01,3.23,0.09c1.04,0.08,2.13,0.24,3.25,0.48s2.16,0.56,3.1,0.95
	c0.94,0.4,1.84,0.91,2.7,1.58s1.6,1.41,2.2,2.28s1.08,1.9,1.41,3.11s0.5,2.56,0.48,4.05c-0.02,1.55-0.21,2.95-0.58,4.18
	c-0.36,1.24-0.84,2.29-1.41,3.15c-0.58,0.86-1.3,1.63-2.18,2.26c-0.88,0.65-1.78,1.15-2.7,1.53c-0.93,0.38-1.99,0.68-3.16,0.9
	c-1.18,0.23-2.31,0.38-3.39,0.44c-1.09,0.06-2.28,0.1-3.57,0.1l-3.97-0.06L490.06,161.48z M494.75,165.84l-0.04,16.34
	c2.89-0.06,5.18-0.39,6.87-0.96c1.7-0.58,2.91-1.41,3.64-2.51c0.74-1.1,1.14-2.56,1.2-4.39c0.11-2.91-0.73-5.02-2.5-6.32
	C502.14,166.69,499.08,165.98,494.75,165.84"/>
<path class="st1" d="M520.12,161.48c-0.02,6.66-0.04,11.75-0.04,15.29c0,0.94,0.2,1.8,0.61,2.58c0.4,0.78,0.93,1.39,1.55,1.85
	c0.64,0.46,1.3,0.81,2,1.05c0.7,0.24,1.38,0.34,2.04,0.3c1.4-0.05,2.64-0.61,3.74-1.69c1.09-1.09,1.68-2.44,1.74-4.08
	c0.13-3.74,0.15-8.84,0.06-15.29l4.99-0.03c0.02,6.43,0.01,11.88-0.04,16.38c-0.03,1.2-0.26,2.31-0.73,3.33
	c-0.46,1.01-1.05,1.88-1.78,2.56c-0.73,0.69-1.55,1.26-2.5,1.74c-0.94,0.48-1.88,0.81-2.81,1.04c-0.94,0.23-1.86,0.33-2.75,0.33
	c-1.38-0.03-2.69-0.21-3.95-0.58c-1.25-0.36-2.41-0.9-3.47-1.6c-1.05-0.71-1.89-1.65-2.5-2.83c-0.63-1.18-0.94-2.5-0.94-3.99
	l-0.13-16.4L520.12,161.48z"/>
<path class="st1" d="M566.9,166.21l-2.46,5.12c-0.9-1.88-2.33-3.26-4.28-4.17c-1.96-0.89-4-0.99-6.12-0.26
	c-1.7,0.55-3.08,1.78-4.1,3.68c-1.03,1.9-1.33,3.84-0.89,5.8c0.53,2.34,1.68,4.08,3.44,5.2c1.78,1.13,4.07,1.55,6.89,1.26l-2.1,4.43
	c-1.93,0.03-3.73-0.31-5.42-1c-1.69-0.69-3.08-1.61-4.18-2.75c-1.1-1.15-1.98-2.44-2.63-3.88c-0.65-1.43-1-2.88-1.06-4.34
	c-0.11-3.01,0.65-5.74,2.29-8.17c1.64-2.43,3.9-4.08,6.79-4.95c1.93-0.59,3.8-0.74,5.63-0.43c1.83,0.31,3.44,0.86,4.85,1.65
	C564.98,164.2,566.09,165.13,566.9,166.21"/>
<polygon class="st1" points="578.67,186.51 578.64,165.81 570.61,165.74 570.61,161.45 591.05,161.48 591.01,165.78 583.33,165.81 
	583.16,186.51 "/>
<polygon class="st1" points="595.15,161.45 599.97,161.45 599.9,186.45 595.07,186.41 "/>
<path class="st1" d="M604.07,182.54l2.26-5.18c0.96,1.86,2.44,3.2,4.43,4.04c1.99,0.83,4.04,0.85,6.14,0.06
	c1.68-0.61,3-1.89,3.97-3.82c0.96-1.94,1.19-3.88,0.69-5.83c-0.59-2.31-1.79-4.02-3.59-5.08c-1.8-1.08-4.12-1.43-6.94-1.05
	l1.94-4.47c1.95-0.11,3.77,0.16,5.47,0.8c1.69,0.65,3.11,1.53,4.27,2.63c1.15,1.1,2.06,2.36,2.75,3.78c0.69,1.41,1.09,2.85,1.2,4.32
	c0.21,3.01-0.45,5.77-2.01,8.23c-1.56,2.48-3.78,4.2-6.64,5.18c-1.9,0.65-3.77,0.85-5.6,0.6c-1.84-0.25-3.48-0.76-4.9-1.51
	C606.03,184.49,604.89,183.59,604.07,182.54"/>
<polygon class="st1" points="630.48,186.41 630.41,161.45 635.47,161.45 646.63,178.87 646.55,161.48 651.22,161.48 650.92,186.45 
	646,186.45 635.1,169.1 635,186.45 "/>
</svg>
